<?xml version="1.0" encoding="utf-8"?><!DOCTYPE svg PUBLIC "-//W3C//DTD SVG 1.1//EN"
        "http://www.w3.org/Graphics/SVG/1.1/DTD/svg11.dtd">
<svg version="1.1" id="Contours" xmlns="http://www.w3.org/2000/svg" xmlns:xlink="http://www.w3.org/1999/xlink" x="0px"
     y="0px" width="1079.177368px" height="1079.177368px" viewBox="0.000011 -0.000007 1079.177368 1166.965820"
     enable-background="new 0 0 1079.177368 1079.177368" xml:space="preserve" stroke="black" fill="none"
     stroke-linecap='round' stroke-linejoin='round'><path class="selected"  fill="#000000" opacity="1.000000" stroke="none"
 	d="
M461.066182 1048.221107 C456.735432 1046.557045 452.556721 1045.368690 448.606892 1043.653114 C445.765401 1042.418983 443.822224 1042.797645 441.713826 1045.011024 C433.652730 1053.473793 423.744588 1054.059852 412.888203 1052.176674 C402.137715 1050.311928 392.209126 1046.623329 383.033833 1040.922767 C375.914143 1036.499306 376.264729 1036.395546 373.266133 1044.070839 C367.775227 1058.124916 363.061543 1072.636268 356.001240 1085.878700 C349.446858 1098.172157 340.891194 1109.580604 332.029011 1120.406532 C324.378560 1129.752113 315.655171 1138.458778 306.315938 1146.118690 C295.851216 1154.701576 284.221028 1161.897499 270.292805 1163.981849 C264.031270 1164.918861 257.816426 1166.412758 251.525532 1166.833168 C246.375752 1167.177284 241.146504 1166.086342 235.948994 1166.043007 C232.090291 1166.010780 228.231038 1166.839882 224.363423 1166.934364 C211.025899 1167.260292 198.153645 1165.039711 185.452290 1160.746864 C165.430073 1153.979652 147.563069 1143.954384 132.658009 1128.836220 C123.785756 1119.837196 114.321400 1111.369179 106.016774 1101.880531 C99.718495 1094.684120 94.654469 1086.369667 89.355519 1078.345009 C80.213643 1064.500770 71.967396 1050.005897 62.027058 1036.774330 C57.418477 1030.639931 49.828236 1026.671181 43.372121 1022.022865 C38.297810 1018.369545 32.783803 1015.331459 27.654591 1011.748817 C20.100850 1006.473060 18.601338 997.520302 15.498372 989.812782 C10.665150 977.807411 6.474507 965.469520 3.110188 952.976722 C1.360310 946.478798 -1.865428 939.447426 1.408559 932.560219 C5.095296 924.805092 10.872761 918.404823 18.916310 915.371986 C21.219289 914.503822 26.001973 917.270546 28.202840 919.686806 C32.754597 924.683876 36.184499 930.683143 40.365376 936.044472 C43.562123 940.143715 47.193989 943.904823 50.662404 947.789467 C51.024373 948.194862 51.590443 948.417885 52.061848 948.725502 C52.146626 948.093910 52.509755 947.318641 52.270039 946.854652 C50.918294 944.238197 49.558095 941.607704 47.949574 939.145912 C42.713551 931.132606 37.295491 923.236854 32.154469 915.164100 C31.479665 914.104530 31.374348 911.750770 32.085927 910.893837 C36.066243 906.100502 40.021352 901.178016 44.670460 897.076454 C50.145619 892.246010 55.291432 895.549721 60.005574 899.172523 C64.565053 902.676430 69.549550 905.783485 73.509663 909.875404 C79.803670 916.379066 86.014760 923.131630 91.149373 930.548500 C98.777180 941.566688 105.485219 953.226112 112.425343 964.708900 C113.095143 965.817177 113.242848 967.950355 112.621937 969.021889 C104.594258 982.874794 108.853047 995.091347 116.931294 1007.200355 C124.030995 1017.842811 130.390584 1028.976112 137.352345 1039.714149 C147.686665 1055.653969 157.505940 1072.038368 171.818318 1084.929359 C184.350545 1096.216957 198.505208 1105.152260 215.309956 1107.637245 C223.750264 1108.885170 232.711262 1106.678749 241.423848 1105.891762 C242.106709 1105.830116 242.687825 1104.642250 243.316182 1103.977821 C242.720784 1103.642250 242.148946 1103.071571 241.526265 1103.009193 C237.448079 1102.601845 233.348225 1102.401405 229.275166 1101.953895 C213.505696 1100.221596 199.326131 1093.953163 185.941731 1085.925209 C179.308858 1081.946693 172.899312 1077.331215 167.227010 1072.095741 C162.323262 1067.569740 158.280171 1061.986122 154.431294 1056.469154 C146.890309 1045.659828 139.541493 1034.702675 132.503651 1023.560097 C125.859273 1013.040565 119.029622 1002.531776 113.696217 991.343788 C111.611836 986.971473 113.335286 980.759071 113.483571 975.389076 C113.497090 974.899940 114.676198 974.442909 115.314046 973.971107 C115.648091 974.568031 116.399190 975.300697 116.255482 975.741981 C112.221303 988.130043 121.104909 996.250160 126.463948 1005.201210 C134.908070 1019.305458 144.068013 1033.002846 153.380330 1046.559608 C164.511189 1062.763954 178.307698 1075.938637 195.911275 1085.478798 C206.166280 1091.036415 216.683186 1095.218544 227.824055 1097.758461 C234.991597 1099.392616 242.575337 1099.938881 249.931111 1099.699379 C253.619527 1099.579262 257.497151 1097.041542 260.806844 1094.863930 C280.845418 1081.680580 294.173360 1063.444496 302.503743 1040.938759 C307.517110 1027.394325 314.414448 1014.549721 320.404073 1001.363075 C323.078694 995.474525 325.727010 989.566566 328.097615 983.553261 C328.612080 982.248329 328.383198 980.151161 327.645039 978.936439 C324.168843 973.215736 324.509969 967.091835 326.515767 961.369667 C327.926839 957.344398 326.204365 955.452186 323.963643 953.097084 C318.744038 947.611366 313.539265 942.110023 308.407613 936.542152 C301.529927 929.079750 294.373555 921.833168 288.018635 913.944618 C283.925801 908.864052 279.444722 908.464760 273.905354 909.956947 C260.520039 913.562782 243.862385 906.588539 235.147481 895.620399 C226.574239 884.830482 219.427327 873.182167 214.048543 860.791786 C207.986836 846.828163 203.125569 832.145057 199.616597 817.330848 C196.497517 804.162636 204.095906 793.986244 214.025105 786.158363 C216.690022 784.057411 216.601643 782.355995 215.952046 780.176063 C211.490315 765.203407 206.853169 750.282875 202.364583 735.318031 C201.997700 734.094887 202.773640 732.420326 202.217915 731.385536 C201.160481 729.416420 199.792439 726.535682 198.086201 726.160927 C181.666035 722.555946 170.567769 713.183632 165.929463 696.949867 C164.120137 690.617470 162.829488 683.986976 162.452779 677.426185 C161.667866 663.757423 161.484883 650.046181 161.361287 636.349647 C161.230855 621.892799 164.833882 608.163185 172.509175 596.030494 C177.210591 588.598854 184.240437 582.372719 193.248921 580.808754 C201.153645 579.436439 202.159688 574.291847 203.370808 568.205482 C205.968037 555.153602 208.650532 542.109596 211.763264 529.174354 C212.807271 524.835914 211.889729 522.605812 208.184651 520.131996 C201.150532 515.435463 197.695760 508.091102 195.284505 500.148842 C190.421651 484.131386 193.735249 468.950538 200.504719 454.453468 C207.036824 440.464821 213.314107 426.097084 221.945760 413.423012 C230.373372 401.048561 243.081746 392.630958 258.106282 389.139503 C261.720418 388.299721 265.820576 389.591957 269.701009 389.845741 C273.001302 390.061683 275.865193 390.596290 278.315083 386.700477 C287.392293 372.265968 297.729817 358.635597 310.186543 347.001259 C315.187886 342.330116 315.715474 338.881935 313.499104 332.846779 C309.629414 322.309974 313.280843 312.557472 319.169575 303.677284 C328.098531 290.212623 340.452656 280.217994 353.453755 271.015175 C361.647969 265.214882 369.777913 259.148842 378.609151 254.471718 C387.764790 249.622658 397.797566 246.592201 408.478841 246.966041 C415.872334 247.224830 422.478780 249.380348 427.701558 254.870155 C430.059224 257.348488 432.119038 258.412880 435.722737 256.236549 C449.099812 248.158119 463.090718 241.289589 478.097127 236.669960 C481.782613 235.535377 485.583272 234.558021 489.003010 232.851234 C491.370991 231.669288 494.414632 229.711036 495.041524 227.500038 C501.331868 205.316017 517.474629 195.418434 538.732259 192.053993 C550.105611 190.253883 561.605305 189.228187 573.063557 187.998085 C580.605122 187.188576 588.165242 186.472267 595.735799 186.053077 C598.736592 185.886879 601.781392 186.740761 604.818623 186.942055 C607.839192 187.142128 609.770955 185.989662 611.790669 183.250282 C619.200032 173.200905 627.046223 163.459572 635.012105 153.837532 C648.913472 137.046028 662.994527 120.402809 677.059468 103.747505 C686.667012 92.370460 696.517476 81.195869 705.998799 69.715553 C715.490498 58.222694 724.481099 46.314430 734.030415 34.871254 C740.420186 27.214210 747.281392 19.935982 754.167378 12.713142 C757.985371 8.708473 761.972066 4.719429 766.462300 1.542457 C770.820088 -1.540703 773.481221 0.128242 773.222310 5.388344 C773.070454 8.470741 772.611836 11.835121 771.215962 14.511879 C760.772481 34.538124 750.088887 54.439522 739.422749 74.349098 C732.405171 87.448097 725.693745 100.734871 718.100850 113.494667 C711.368184 124.808998 703.337666 135.343391 696.365864 146.525001 C685.985615 163.173012 675.884907 180.001014 665.971211 196.931556 C662.001424 203.711036 658.794575 210.942299 655.366414 218.028847 C654.820698 219.156959 654.941304 220.607399 654.753926 221.908851 C655.802449 221.929603 656.854268 222.014564 657.899007 221.961342 C670.105733 221.339760 682.172749 222.615150 694.037495 225.292579 C702.567158 227.217323 704.520894 226.618446 708.005513 218.782387 C714.055806 205.177467 727.175557 199.870094 742.123067 204.376503 C760.611104 209.950355 779.240987 215.280372 797.221455 222.236244 C810.492207 227.370216 823.647359 233.811500 832.127461 246.328285 C837.261983 253.906776 840.119282 262.049904 837.435445 271.388038 C835.744649 277.271156 837.210103 279.505653 842.488301 282.747291 C855.407368 290.681312 868.065816 299.039589 880.988789 306.967079 C882.768697 308.059059 885.911397 308.640358 887.651265 307.820411 C903.617085 300.295204 918.426656 300.847877 931.956685 313.099708 C934.607442 315.500099 937.408955 317.737770 940.007100 320.192177 C947.570332 327.337074 955.706074 334.006264 962.433491 341.874183 C971.909688 352.956947 982.145772 363.656105 986.416402 378.382728 C989.816304 390.106178 990.376973 401.124122 982.465230 411.331825 C978.624898 416.286659 980.973531 420.919044 983.901265 424.931129 C993.307393 437.821205 1000.624287 451.849403 1007.316060 466.253029 C1009.178731 470.262306 1011.796162 472.493751 1016.743306 472.090736 C1022.869038 471.591713 1029.072285 472.142616 1035.231465 471.931434 C1044.868184 471.601051 1051.812154 476.000465 1057.352193 483.510719 C1061.904561 489.681923 1066.761250 495.629493 1071.508321 501.656227 C1076.313008 507.756386 1079.783589 514.656410 1079.088643 522.402015 C1078.602681 527.817360 1076.013325 533.051063 1074.308003 538.347999 C1072.367940 544.374244 1070.108296 550.313698 1068.521626 556.429481 C1067.908833 558.791359 1068.512837 561.581093 1068.991353 564.094276 C1070.937764 574.317543 1071.977315 584.554237 1067.185200 594.226784 C1065.581685 597.463112 1062.986348 601.217506 1059.909932 602.509071 C1053.027974 605.398292 1052.301411 611.354469 1050.251973 617.054054 C1044.672627 632.570411 1048.954488 648.647926 1047.123067 664.309852 C1046.075825 673.266273 1050.044087 678.614174 1056.735127 682.805702 C1065.600972 688.359779 1068.959981 696.517982 1069.352437 706.544472 C1070.073384 724.959877 1066.617818 742.652260 1060.805928 760.016151 C1057.177144 770.857094 1054.319478 781.984291 1050.181660 792.619423 C1045.348164 805.042030 1035.811421 814.322548 1020.872090 815.090980 C1019.309712 815.171303 1017.169942 816.553993 1016.417012 817.940223 C1007.261494 834.793617 998.245259 851.724403 989.435567 868.760780 C988.631978 870.314735 989.141743 872.834511 989.662251 874.735878 C991.747212 882.350258 995.253926 889.780189 996.024068 897.498939 C997.029927 907.582924 991.112202 916.119789 985.573384 923.978554 C978.482442 934.039467 970.613789 943.583290 962.664326 952.998695 C955.800435 961.128090 948.660786 969.077308 941.082051 976.536171 C933.081197 984.410316 923.266377 989.005409 911.783345 988.913978 C906.374165 988.871010 901.478413 986.905800 896.748311 984.162269 C895.194112 983.260902 891.709614 983.410194 890.495503 984.553139 C878.628682 995.725136 864.414815 1003.410316 850.883321 1012.134071 C849.068867 1013.303749 847.516865 1016.345985 847.468159 1018.556923 C847.089131 1035.756508 838.470967 1048.899330 824.437154 1056.598915 C805.317403 1067.089149 784.989888 1075.526161 764.721577 1083.707435 C755.662373 1087.364174 745.602803 1089.101845 735.486348 1087.971107 C725.259663 1086.827919 715.962178 1083.239540 709.349263 1075.248817 C704.797261 1069.748329 700.236592 1070.147499 694.095357 1071.440712 C685.220845 1073.309730 676.264668 1075.533119 666.912617 1074.089271 C662.461751 1073.401893 657.797017 1074.232826 653.266133 1073.888954 C649.588155 1073.609657 648.436848 1075.372841 647.200276 1078.444862 C645.017171 1083.868690 642.987263 1089.729164 639.332844 1094.103065 C632.959126 1101.731849 623.493489 1104.437538 613.954671 1104.813392 C598.921529 1105.405922 583.810139 1105.648720 568.800008 1104.814613 C545.485188 1103.518715 523.800130 1096.432777 505.685506 1081.357826 C500.852071 1077.335365 498.795796 1070.031410 495.263997 1064.358925 C494.025838 1062.370399 492.527730 1059.895302 490.563802 1059.116981 C480.922627 1055.295814 471.084676 1051.971107 461.066182 1048.221107 M604.316182 354.471107 C604.194112 355.259865 604.194905 356.092323 603.932210 356.831093 C594.173665 384.284889 584.154622 411.648903 574.692403 439.204201 C568.170308 458.197365 562.580708 477.508766 556.267110 496.576210 C550.498067 513.998939 543.820210 531.132789 538.440144 548.669227 C531.529927 571.192787 525.839802 594.089027 519.031331 616.645851 C511.128316 642.828773 502.677510 668.848305 494.284444 694.880653 C488.221516 713.685707 481.959004 732.428139 475.616475 751.141273 C466.158101 779.047401 456.428548 806.862221 447.061299 834.798622 C442.736226 847.697670 439.407490 860.937538 434.895100 873.765297 C427.584859 894.546791 419.674031 915.116981 412.009236 935.773597 C410.999226 938.495765 410.696309 940.328773 414.009419 942.385780 C428.429402 951.338051 442.817036 960.447059 454.185384 973.374428 C458.853902 978.683021 462.329549 984.664100 462.262410 991.995643 C462.222493 996.359901 461.230122 1000.746620 461.513570 1005.067787 C461.634419 1006.910438 463.548177 1009.525062 465.281148 1010.229896 C477.548909 1015.218788 489.919209 1019.981483 502.429341 1024.318641 C504.255086 1024.951576 508.023518 1023.654457 509.151509 1022.036415 C517.143025 1010.572670 528.869221 1005.362465 541.824788 1004.297889 C552.917927 1003.386390 564.301472 1004.807045 575.450703 1006.105751 C587.523579 1007.511757 599.463704 1010.034950 611.480366 1011.953895 C624.308858 1014.002357 635.309102 1018.672401 641.362752 1031.272133 C643.702168 1036.141395 647.279134 1038.715492 653.373677 1038.109169 C664.882283 1036.964515 676.465962 1036.476234 688.030537 1036.027992 C695.746846 1035.728798 697.047139 1034.500404 697.365498 1026.712318 C697.690327 1018.766151 700.977437 1011.440712 707.292134 1007.197548 C717.946065 1000.038490 729.085103 993.174110 740.880635 988.245033 C757.197896 981.426552 772.267110 970.970375 790.523335 969.361244 C795.491109 968.923500 800.626607 969.102943 805.557637 969.845741 C812.269795 970.856972 817.432149 974.916908 821.839986 979.970253 C824.656148 983.198768 827.306538 983.693031 831.213765 980.770546 C842.200581 972.552528 853.448994 964.659706 864.897969 957.098549 C868.355244 954.815223 868.651875 953.172279 867.462056 949.378090 C863.540669 936.873451 863.189961 924.120765 870.484273 912.763344 C876.077168 904.055092 882.720601 895.890419 889.742329 888.262245 C899.665913 877.481483 910.232564 867.276771 920.781636 857.092445 C929.444356 848.729286 946.598042 845.700599 957.798238 852.847816 C958.743672 853.451088 961.039204 853.679847 961.392110 853.170692 C962.961934 850.906532 964.052388 848.310097 965.316182 845.833900 C963.839619 845.546303 962.363301 845.008461 960.886494 845.007240 C911.057637 844.963539 861.228535 844.883827 811.400410 845.077064 C804.881245 845.102333 798.884053 844.601967 793.987813 839.955238 C785.405659 831.810463 774.634785 825.925697 768.329610 815.440101 C764.853535 809.659340 761.728657 803.111488 763.518819 796.579384 C768.831807 777.194618 775.111592 758.075966 780.939229 738.830848 C784.797505 726.089149 788.415669 713.273964 792.346944 700.555336 C796.544087 686.976234 801.030659 673.486854 805.283345 659.924476 C806.381734 656.421425 807.392354 654.730446 811.043599 657.906898 C817.582661 663.595619 824.460957 668.894569 831.199483 674.353798 C839.683980 681.227577 848.363545 687.876625 856.604756 695.030556 C865.741109 702.961708 875.038838 710.838295 883.191548 719.724769 C888.616963 725.638588 897.019917 730.975380 893.476826 741.654213 C892.943013 743.262977 894.760396 745.204139 896.859883 742.884437 C897.804219 741.841102 898.831441 740.686073 899.262105 739.395302 C901.707051 732.066444 904.237080 724.747597 906.186787 717.281288 C906.931294 714.430702 906.639912 711.445961 903.817769 708.794838 C891.500142 697.223915 879.496846 685.318519 867.379903 673.533973 C867.141133 673.301674 866.912617 673.058388 866.671895 672.828041 C851.275899 658.097328 835.814961 643.433143 820.566914 628.550758 C818.747334 626.774757 816.526143 624.643287 817.625264 621.083961 C825.613057 595.216896 833.515523 569.322792 841.292622 543.391639 C847.787007 521.737465 854.039815 500.010841 860.485249 478.341774 C861.722676 474.181556 863.982808 471.798988 869.147969 471.841041 C900.976216 472.100197 932.807759 471.971107 964.638203 471.971107 C965.638081 471.971107 966.638081 471.970436 967.637959 471.971290 C968.695698 471.972145 969.753560 471.974403 970.811299 471.976051 C970.646260 470.850624 970.798115 469.540931 970.267476 468.628029 C964.483906 458.678505 958.457173 448.867592 952.815449 438.839699 C951.144551 435.869789 948.992818 434.674476 945.943989 435.005287 C932.926167 436.417885 923.096699 430.396583 914.484639 421.613197 C903.117818 410.020302 891.573994 398.582618 880.631245 386.598854 C873.627339 378.928505 866.943867 370.799904 861.301778 362.107460 C857.276631 355.906288 855.034810 348.402077 857.353657 340.649879 C859.250142 334.310280 858.700337 332.618507 853.614766 328.939186 C845.892232 323.352028 838.227681 317.674782 830.717549 311.806801 C824.208272 306.720619 821.324971 307.000221 814.833272 311.768471 C807.108052 317.442848 798.854268 321.048073 788.631367 317.102394 C775.256001 311.939918 761.476094 307.835548 747.948018 303.055763 C735.745381 298.744179 723.342305 294.800270 711.615498 289.414222 C704.339986 286.072548 697.623067 280.905800 696.252095 271.632423 C695.535176 266.783302 694.420918 261.866371 688.417622 260.553077 C686.449483 260.122535 684.550069 259.346046 682.571919 258.997780 C672.773457 257.272621 662.955586 255.658668 653.151570 253.965065 C643.887715 252.364784 641.262410 254.120643 639.297139 263.266884 C639.105489 264.159218 638.649556 264.994667 638.316243 265.856483 C631.982869 282.231422 625.585347 298.581947 619.336629 314.989052 C614.401570 327.946876 609.649495 340.974464 604.316182 354.471107 M550.816182 288.971107 C542.823323 288.971107 534.783162 289.513893 526.850362 288.823707 C518.333089 288.082680 510.663838 284.540199 505.965962 276.974586 C502.045003 270.660194 502.306477 270.206215 494.888631 272.974830 C483.784016 277.119484 472.820943 281.643104 461.791768 285.990822 C456.929158 287.907753 454.414815 290.916298 455.231160 296.648353 C456.996358 309.042640 451.674153 318.901893 442.762715 326.879738 C437.684346 331.426063 432.099019 335.474647 426.424824 339.273597 C412.107503 348.859291 397.836934 358.553627 383.076375 367.419716 C377.008382 371.064613 370.033406 374.068214 362.422017 372.926857 C357.302693 372.159279 352.173299 371.238441 347.188618 369.874000 C344.041890 369.012672 341.840901 369.597877 339.811421 371.960670 C329.461079 384.010658 319.005513 395.972328 308.843465 408.178566 C307.892354 409.321083 308.022664 412.364784 308.862935 413.831154 C313.401021 421.750648 317.391621 429.916725 316.185323 439.238930 C315.106404 447.577064 311.880940 455.191566 307.518391 462.639747 C300.116414 475.277138 294.444234 488.920448 287.187703 501.652260 C279.799458 514.615028 270.510152 525.608681 253.645039 526.315834 C250.300984 526.456032 245.950703 527.863685 244.032185 530.261207 C241.703267 533.171913 241.171223 537.693458 240.373494 541.622047 C238.400227 551.338966 236.859212 561.143654 234.885091 570.860389 C232.262837 583.767616 231.319539 585.240028 243.550618 591.694069 C249.372456 594.766029 253.945576 599.197853 255.188985 605.674476 C257.016072 615.191566 258.644978 624.840492 259.132039 634.495033 C259.630208 644.369728 258.683614 654.320228 258.304768 664.235145 C258.029866 671.430824 257.773030 678.631141 257.265950 685.812416 C256.998189 689.602821 256.610982 693.469764 255.580586 697.104530 C253.119771 705.785805 247.712483 711.918251 239.004842 715.021644 C235.768208 716.175209 234.087849 718.320106 234.200032 722.351478 C234.659993 738.881996 242.783833 753.142372 247.503743 768.392982 C247.899556 769.672035 250.895650 770.693275 252.768941 770.856605 C256.959798 771.222206 261.227803 770.684852 265.422566 771.027504 C275.908955 771.884193 283.432332 778.028724 288.130574 786.669716 C294.224202 797.877113 298.831380 809.883095 304.364522 821.407997 C308.708211 830.455238 314.073567 839.053749 317.863484 848.310829 C320.373372 854.441322 322.126790 861.410560 321.981770 867.954750 C321.827534 874.915565 318.028828 881.297523 313.174092 886.689491 C311.743184 888.278847 310.670918 889.756264 312.931721 892.278114 C323.644002 904.227943 334.000264 916.496498 344.494221 928.642250 C346.612324 931.093788 347.504109 929.806312 348.340535 927.477333 C354.538960 910.218910 360.896687 893.017006 367.019551 875.731849 C373.146809 858.434120 378.834309 840.978309 385.128072 823.742714 C391.941670 805.083412 399.576924 786.720863 406.230794 768.007362 C414.912923 743.589882 422.930379 718.936928 431.334859 694.419960 C436.784749 678.522255 442.419270 662.687782 447.963338 646.822304 C453.151570 631.975136 458.094746 617.037147 463.565877 602.295082 C472.299702 578.761329 481.886189 555.533119 490.166280 531.845131 C497.608418 510.554420 503.661885 488.781654 510.535725 467.288002 C520.320393 436.692909 530.160603 406.114235 540.248311 375.618263 C544.942036 361.428810 550.121785 347.393593 555.359395 333.392494 C560.483845 319.693580 565.915181 306.108375 571.319661 292.516151 C572.580281 289.345863 572.314717 287.671425 568.396626 287.954567 C562.874165 288.353493 557.343404 288.637733 550.816182 288.971107 M397.316182 880.471107 C397.316182 880.823646 397.416341 881.213051 397.301839 881.523475 C391.651570 896.847328 385.852742 912.117714 380.343037 927.491859 C368.588582 960.291054 357.259175 993.245521 345.204549 1025.933143 C338.762715 1043.401039 331.533772 1060.605751 323.974812 1077.624794 C319.186177 1088.406288 312.936238 1098.289711 304.890523 1107.329139 C295.023335 1118.415199 284.021382 1127.638588 271.277058 1134.955971 C254.373372 1144.661537 235.594990 1146.696693 216.671406 1147.897865 C213.676289 1148.088051 210.611043 1146.962929 207.592793 1147.037391 C199.632771 1147.233558 192.295430 1144.915687 185.394185 1141.433388 C175.722554 1136.553139 165.886861 1131.786049 156.921590 1125.776771 C147.759053 1119.635048 138.956471 1112.668617 131.095265 1104.944740 C120.934254 1094.960975 111.666676 1084.007606 104.453267 1071.571937 C98.304433 1060.971718 92.476521 1050.184608 86.266865 1039.621010 C82.944905 1033.969764 81.770924 1026.958290 75.803456 1022.940956 C70.450581 1019.337440 65.504872 1014.922889 59.758046 1012.157997 C50.604634 1007.754310 43.372304 1001.728676 39.388081 992.393959 C36.307027 985.175453 33.769948 977.716835 31.175282 970.300453 C26.015309 955.551430 18.942433 941.390785 17.282796 925.547889 C17.207234 924.826576 16.643727 924.156410 16.307484 923.462440 C15.600453 923.841957 14.819112 924.126869 14.197591 924.615150 C6.291646 930.825844 7.174428 939.107948 10.001759 946.976112 C16.001820 963.673500 22.820302 980.055214 27.496266 997.242714 C28.919423 1002.473671 31.704030 1007.155433 37.487782 1010.210609 C46.868855 1015.166054 55.463032 1021.621132 64.329335 1027.533119 C66.327718 1028.865394 68.630025 1030.220009 69.852833 1032.157387 C76.502980 1042.693153 83.693440 1053.007728 89.129201 1064.162880 C98.292409 1082.967689 109.528737 1100.176552 124.097493 1115.121742 C129.540272 1120.705116 135.805226 1125.478798 141.571431 1130.756996 C153.661061 1141.823768 167.772969 1149.550453 183.098164 1154.816322 C192.341145 1157.992347 202.043172 1159.985267 211.668233 1161.837806 C217.221333 1162.906532 223.043904 1163.033119 228.723408 1162.862221 C234.628072 1162.684730 240.695882 1160.410072 246.348714 1161.281410 C253.433430 1162.373573 259.942769 1161.318764 266.653950 1159.981117 C282.149556 1156.892738 295.629109 1149.968300 306.900960 1138.867958 C313.529744 1132.340004 319.998616 1125.648720 326.662068 1119.156776 C337.482320 1108.615150 344.761250 1095.523231 352.100606 1082.654945 C356.939046 1074.171425 359.784993 1064.538612 363.394307 1055.369911 C369.091817 1040.896766 374.833272 1026.437904 380.264424 1011.864174 C384.087849 1001.604530 387.325948 991.128212 391.009846 980.814613 C395.000447 969.642372 399.374104 958.605263 403.266255 947.399940 C406.813435 937.187904 409.638936 926.720741 413.318013 916.559852 C419.768269 898.745888 427.052937 881.226234 433.202229 863.313392 C439.974751 843.585243 445.690572 823.497230 452.179768 803.668373 C459.282918 781.963783 466.713155 760.365883 474.061787 738.742103 C478.081624 726.913612 482.439229 715.196205 486.270528 703.308143 C493.429646 681.094520 500.277486 658.780800 507.330342 636.532692 C511.717854 622.692299 516.485432 608.967872 520.639302 595.059059 C524.723714 581.382667 527.733174 567.372535 532.121236 553.802101 C542.567952 521.494972 553.567586 489.366859 564.310017 457.155067 C571.342671 436.067726 577.994710 414.846840 585.408284 393.894874 C592.549031 373.713844 600.537495 353.834327 607.986104 333.760170 C613.240864 319.598305 618.082661 305.282997 623.354024 291.127418 C628.513081 277.273170 634.052937 263.561195 639.295674 249.737465 C644.158223 236.916237 648.065816 223.670326 653.771565 211.243995 C667.367451 181.633461 684.748433 154.142006 702.695576 126.997627 C711.389668 113.848030 719.495991 100.309273 727.793843 86.900612 C728.025044 86.526924 727.554951 85.175148 727.157368 85.042396 C723.971822 83.979042 715.226704 87.388923 713.308736 90.235542 C709.617940 95.712868 705.977437 101.227546 702.148823 106.607734 C691.240987 121.936195 680.295064 137.238167 669.273946 152.485298 C661.935567 162.637428 654.369954 172.625587 647.053303 182.793068 C643.946919 187.109779 640.328267 191.360389 638.483418 196.225380 C633.016194 210.642311 628.413228 225.384193 623.294942 239.936683 C614.036458 266.260841 604.591389 292.519447 595.333821 318.843910 C587.249715 341.831581 579.319966 364.873451 571.315144 387.888954 C563.209126 411.195228 555.185384 434.530678 546.960652 457.795021 C537.044026 485.845070 526.928059 513.824684 516.946309 541.851845 C509.032185 564.073646 501.204365 586.326210 493.312581 608.556007 C483.409810 636.450294 473.395955 664.305519 463.585652 692.232216 C452.647053 723.370888 441.871602 754.566810 431.049397 785.746376 C427.356770 796.385048 423.826131 807.080604 420.066609 817.695350 C412.707295 838.474281 405.239156 859.214760 397.316182 880.471107 M840.316182 564.471107 C835.724507 579.729469 830.713521 594.877785 826.668477 610.279701 C823.184956 623.543495 820.259053 621.723488 832.045918 631.210365 C832.433125 631.522072 832.751851 631.917702 833.111592 632.264808 C842.635518 641.457618 852.202168 650.606788 861.676900 659.850136 C878.069722 675.843056 894.359395 691.942055 910.813374 707.871620 C913.430928 710.405678 913.870503 712.808143 912.733418 716.118812 C910.124165 723.715004 907.466695 731.317665 905.392964 739.068641 C902.761128 748.906654 903.001729 749.022499 893.104512 748.948280 C888.507466 748.913856 883.912251 748.635292 879.316182 748.467445 C880.613179 743.838417 882.033833 739.238685 883.144063 734.565223 C883.567647 732.781898 884.067647 730.240150 883.181172 729.055336 C879.124165 723.633583 874.914326 718.242225 870.123433 713.479652 C866.074727 709.454872 861.064351 706.415931 856.634541 702.753090 C842.590352 691.140663 828.626607 679.430946 814.613423 667.781044 C811.333882 665.054725 809.695088 665.575599 808.332295 669.890297 C803.955464 683.747108 799.600117 697.611244 795.326802 711.500404 C786.957661 738.702064 778.805562 765.971840 770.239033 793.111122 C766.846822 803.857704 773.217915 814.925331 779.415913 820.518348 C783.366719 824.083534 787.393819 827.610634 791.705220 830.711952 C794.291157 832.572181 797.485127 834.780800 800.414693 834.793495 C856.076558 835.034340 911.739766 835.018837 967.401509 834.775795 C969.379536 834.767250 972.377095 832.265785 973.124165 830.263588 C975.447530 824.038246 976.844258 817.472694 978.728047 811.076820 C983.889302 793.554115 989.029805 776.024330 994.336934 758.545692 C1001.661153 734.423866 1009.210225 710.369911 1016.415181 686.213051 C1017.141133 683.778602 1017.246602 679.795448 1015.804219 678.290931 C1002.679097 664.600380 989.210347 651.235573 975.714741 637.904579 C961.081319 623.449928 946.245381 609.199867 931.688985 594.668983 C929.950703 592.933754 928.131612 589.738746 928.550923 587.665504 C929.925801 580.868019 932.136494 574.212623 934.449971 567.652138 C934.989400 566.122108 937.136494 564.245399 938.658223 564.137306 C944.461812 563.725380 950.312642 563.931556 956.145039 563.988502 C958.891377 564.015358 960.264058 564.492592 958.197163 567.734474 C954.643941 573.307350 955.947407 578.179420 961.225484 582.413063 C967.002827 587.047279 972.702779 591.780189 978.371846 596.546852 C985.184834 602.275123 991.866475 608.160438 998.719380 613.839943 C1007.628072 621.223366 1016.809834 628.285438 1025.562276 635.846718 C1030.827779 640.395607 1030.563008 640.650490 1032.531758 634.282936 C1036.731831 620.697609 1041.132588 607.173988 1045.297261 593.577980 C1052.366109 570.500343 1058.987813 547.279213 1066.476216 524.339943 C1069.513448 515.035866 1068.688740 506.896950 1063.041280 499.328102 C1059.072530 494.009254 1054.320210 489.281654 1050.058614 484.172706 C1046.120137 479.450844 1041.163594 477.892006 1035.113911 477.904640 C980.617940 478.018348 926.121480 478.009010 871.625630 477.887855 C867.900044 477.879616 866.260518 478.931007 865.224995 482.599952 C860.431416 499.585853 855.366719 516.496071 850.297139 533.402809 C847.233052 543.621132 843.982686 553.783546 840.316182 564.471107 M341.816182 332.971107 C340.068684 334.385231 338.227437 335.699196 336.590291 337.231178 C330.109700 343.295265 323.601765 349.335121 317.282368 355.564796 C312.487019 360.292091 307.607014 365.007362 303.391743 370.233742 C295.191853 380.400612 287.427571 390.919044 279.491902 401.298683 C275.113545 407.025368 270.071370 412.263649 268.087788 419.583778 C266.966328 423.722206 266.483601 427.583656 269.697896 430.723732 C272.124226 433.093788 278.240620 432.425453 281.117390 429.568031 C283.739644 426.963417 285.968526 423.955971 288.310200 421.076820 C299.255757 407.618812 310.126851 394.099769 321.154195 380.709205 C323.579365 377.764381 326.614827 375.330971 329.227681 372.530128 C337.379353 363.792091 345.339253 354.871193 353.637349 346.275795 C356.736226 343.065895 360.817586 340.813148 363.977437 337.650734 C366.569783 335.056251 367.542012 331.472633 364.976582 328.247108 C362.703938 325.389625 360.038960 322.531044 355.705891 324.969154 C351.247151 327.477821 346.779744 329.971107 341.816182 332.971107 M744.316182 1040.471107 C740.685811 1031.956825 740.144917 1032.085121 731.930440 1034.724281 C718.750752 1038.958534 705.187031 1041.695350 691.371602 1042.946571 C686.027974 1043.430458 680.512105 1042.964393 675.329365 1044.096840 C659.514241 1047.551918 643.477620 1048.367836 627.412190 1048.889808 C621.904927 1049.068764 616.356465 1047.937050 610.846944 1048.097450 C607.046712 1048.208046 603.140706 1049.741249 602.051778 1053.935829 C601.554951 1055.849769 602.038411 1059.188392 603.354329 1060.172035 C606.638692 1062.626625 610.545552 1065.389320 614.398335 1065.715248 C623.714070 1066.503334 633.159810 1066.342445 642.519551 1065.881386 C655.611470 1065.236366 668.685933 1064.112098 681.741475 1062.907875 C687.721577 1062.356239 693.710469 1061.444130 699.568501 1060.130287 C709.121358 1057.987465 718.658589 1055.676796 728.032857 1052.870277 C734.593037 1050.906166 742.016499 1049.501991 744.316182 1040.471107 M796.316182 1009.471107 C793.993794 1011.863197 791.206807 1013.922767 792.851948 1018.080604 C794.480855 1022.197548 797.881734 1022.482094 801.166402 1021.858436 C805.859273 1020.967689 810.578145 1019.717811 814.976948 1017.881141 C823.068501 1014.502723 831.392232 1011.321571 838.792012 1006.725990 C851.075459 999.097694 862.927754 990.715858 874.535786 982.079017 C883.167378 975.656776 891.386739 968.610634 899.274190 961.287269 C903.307881 957.542030 906.560078 952.791298 909.443745 948.055458 C910.538716 946.257240 910.589864 942.344154 909.359029 940.973915 C907.730855 939.161415 904.087300 937.703163 901.831563 938.248817 C898.365132 939.087440 895.050069 941.399086 892.182759 943.718666 C880.291402 953.338173 869.055318 963.834144 856.697041 972.791908 C843.306538 982.498085 829.038838 991.019325 814.942158 999.714149 C809.186421 1003.263954 802.874776 1005.912514 796.316182 1009.471107 M529.816182 1039.971107 C528.983845 1039.971107 528.097737 1040.161171 527.327107 1039.943031 C513.327107 1035.981727 499.281941 1032.165199 485.366902 1027.922157 C467.812581 1022.569496 451.920430 1013.648109 436.171040 1004.428139 C431.808552 1001.874306 427.118184 999.716347 422.332539 998.107704 C419.182027 997.048744 415.032857 997.985634 413.984273 1001.196571 C413.183491 1003.648720 414.271321 1007.556312 415.902852 1009.818397 C422.819478 1019.408241 432.765523 1025.519569 443.394734 1029.794227 C460.522908 1036.682533 478.005635 1042.745155 495.539204 1048.550819 C507.857747 1052.629921 520.247456 1056.925575 533.505391 1056.959877 C539.784199 1056.976112 543.852803 1053.211708 544.311848 1047.082924 C544.544698 1043.974891 543.328694 1042.270546 539.982136 1041.901649 C536.893391 1041.561195 533.868977 1040.637733 529.816182 1039.971107 M448.816182 261.971107 C439.342976 267.637733 429.822469 273.227577 420.426533 279.019508 C417.723286 280.685890 415.266682 282.809913 412.897053 284.946083 C409.377278 288.119118 409.352071 292.111427 411.730611 295.737282 C414.145467 299.418251 418.218220 298.751137 421.407918 297.216530 C427.814107 294.134315 433.781148 290.142555 440.175679 287.032326 C451.663472 281.444801 463.208821 275.937782 474.967000 270.956276 C483.885640 267.177894 493.108235 264.074745 502.311787 261.021644 C513.012349 257.471840 523.927571 254.551552 534.544453 250.780189 C536.907857 249.940651 539.557088 246.915321 540.034566 244.494056 C540.668599 241.279030 537.749165 239.145668 534.353352 239.012428 C528.271077 238.773842 522.000813 237.834022 516.134236 238.929054 C508.141072 240.421119 500.355977 243.275673 492.654500 246.029579 C478.309224 251.159279 464.088643 256.637794 448.816182 261.971107 M908.816182 350.971107 C910.882832 347.988319 910.989278 345.068214 908.274190 342.453224 C901.166646 335.607887 894.625874 327.968300 886.727315 322.193214 C870.768941 310.525062 854.323506 299.463661 837.571187 288.961647 C826.088643 281.763160 814.546529 274.357643 801.305562 270.450416 C797.198872 269.238685 794.202290 270.361610 792.300435 274.315407 C790.745259 277.548378 792.678120 281.265480 797.465230 283.970131 C806.911153 289.306679 816.873433 293.907203 825.708150 300.113258 C848.783955 316.323280 873.721822 329.970802 894.093892 349.983253 C899.172993 354.972572 902.593892 356.054237 908.816182 350.971107 M250.316182 810.471107 C250.707295 808.195595 252.013081 805.600258 251.347005 803.694252 C245.197469 786.098060 238.405781 768.722938 232.434651 751.069252 C229.108235 741.234535 226.547078 731.082680 224.465901 720.905067 C223.021687 713.843056 222.842000 706.502846 222.368733 699.269203 C222.082906 694.899086 222.666890 690.459144 222.220479 686.116249 C221.745015 681.491005 217.812337 678.151649 213.735249 677.960853 C208.540608 677.717933 206.494282 681.598427 205.655843 685.372474 C204.740803 689.491737 204.757039 694.049965 205.429951 698.246498 C207.447163 710.825599 209.616902 723.403969 212.416707 735.827186 C215.352498 748.854164 218.546956 761.875038 222.636983 774.573768 C226.119527 785.386268 231.134907 795.698158 235.282429 806.305824 C238.244649 813.881874 244.130818 816.017128 250.316182 810.471107 M967.316060 855.471107 C961.429219 863.357948 955.699361 871.369179 949.590596 879.080116 C946.457051 883.035438 944.535542 887.666908 946.157490 891.982704 C948.481465 898.166542 956.299702 899.296058 960.497945 894.060707 C968.011250 884.690712 975.468526 875.131141 981.630513 864.859535 C988.921651 852.705604 995.244038 839.911659 1001.201436 827.032142 C1007.751240 812.871132 1014.869771 798.856117 1016.440205 782.851356 C1017.112080 776.004066 1016.528828 773.995643 1010.282002 772.436928 C1006.282613 771.439003 1001.411275 775.289833 1000.272603 780.011513 C999.294698 784.066444 997.938374 788.030067 996.752705 792.035072 C992.273091 807.165931 987.872945 822.321205 983.243184 837.406044 C982.423115 840.077675 980.571675 844.655678 979.329121 844.611732 C971.712544 844.341835 970.277241 850.059486 967.316060 855.471107 M1014.316182 667.471107 C1015.258076 668.195961 1016.199849 668.920692 1017.141621 669.645546 C1017.533101 668.475624 1018.288838 667.296181 1018.258198 666.137611 C1018.032490 657.614723 1017.890523 649.075783 1017.171529 640.588478 C1016.951314 637.989601 1015.640767 634.833595 1013.748433 633.142555 C1006.934346 627.053139 999.662862 621.475136 992.556172 615.713844 C985.578023 610.056801 978.538106 604.474769 971.621480 598.743507 C964.902364 593.175941 958.242451 587.531837 951.713032 581.744789 C950.527486 580.694130 950.039815 578.818458 949.335469 577.275490 C948.852437 576.217140 948.552022 575.075538 948.169942 573.971107 C946.885396 574.810890 944.962300 575.367653 944.440205 576.545509 C943.072530 579.631264 942.497090 583.057777 941.278340 586.222328 C938.775288 592.722511 940.175557 597.630897 946.613179 600.796242 C947.037373 601.004799 947.322774 601.490150 947.683003 601.835975 C956.020772 609.842811 964.398579 617.808327 972.690205 625.862770 C986.594380 639.369179 1000.443745 652.931984 1014.316182 667.471107 M224.316182 602.471107 C224.011555 587.772865 227.941487 573.488563 228.879658 559.029091 C229.719258 546.088295 233.941548 534.411598 237.486043 522.434852 C240.446980 512.429725 244.774495 502.815346 248.747090 493.130592 C250.161702 489.681923 249.129414 486.872658 246.326741 485.805092 C244.292622 485.030189 240.988240 485.724891 239.030904 486.980873 C234.143697 490.116859 233.754536 496.016456 231.929341 500.930946 C227.904866 511.767067 223.667256 522.565040 220.455708 533.650673 C217.160054 545.026344 215.072652 556.747597 212.289693 568.277382 C209.761311 578.752357 207.504475 589.208107 208.230183 600.121437 C208.451253 603.445289 207.872029 606.877968 207.265401 610.188637 C206.291035 615.505775 208.248982 620.122413 212.483418 621.638405 C215.172322 622.601051 219.979207 619.174660 221.832051 614.937721 C222.078084 614.375160 222.184468 613.745827 222.311970 613.138222 C222.987752 609.917518 223.649556 606.693764 224.316182 602.471107 M813.816182 982.971107 C810.178975 981.304359 806.671773 978.678139 802.878438 978.164100 C794.058247 976.968910 785.518941 978.838417 776.972432 981.640297 C757.028828 988.178505 738.920430 998.485634 720.655904 1008.396156 C712.378560 1012.887733 707.075093 1020.444374 707.424092 1030.610267 C707.463277 1031.753212 709.549336 1033.909218 709.745381 1033.805946 C715.617940 1030.719276 722.961079 1030.972572 727.755147 1025.234047 C730.722920 1021.681801 734.316548 1018.062904 738.412251 1016.153724 C750.248067 1010.637123 762.451680 1005.899940 774.566914 1000.995155 C783.220357 997.491493 791.901997 994.039589 801.635396 995.877235 C802.996358 996.134071 804.665791 995.284584 806.071431 994.670204 C809.455708 993.191200 812.625386 990.911903 816.143574 990.121986 C821.276509 988.969642 819.299824 987.287025 817.060933 985.257240 C816.262471 984.533363 815.237569 984.059242 813.816182 982.971107 M341.316182 317.471107 C343.785969 313.668007 345.632344 309.205299 348.835286 306.177833 C361.559651 294.150734 375.893269 284.154213 390.806111 275.040504 C395.559712 272.135475 400.756367 269.697670 406.663167 271.976661 C410.664754 273.520546 414.249043 273.558021 417.661397 270.281654 C419.266133 268.740822 421.679585 268.037086 423.738118 266.976478 C424.581685 266.541847 425.455891 266.166603 426.316182 265.764381 C425.789510 264.833290 425.423787 263.742286 424.696736 263.010109 C423.705220 262.011635 422.451131 261.268532 421.287312 260.447548 C415.931111 256.668861 410.671284 253.093239 403.400105 254.903175 C392.155659 257.702064 381.437093 261.605812 372.167439 268.686256 C363.776509 275.095558 355.501118 281.671425 347.420430 288.466041 C342.044820 292.986122 336.440938 297.497597 332.125752 302.951698 C326.340047 310.264320 323.493977 319.038673 324.361409 328.607582 C324.556172 330.755287 325.321919 332.851295 325.824788 334.971107 C327.215596 333.577431 328.557210 332.129249 330.016682 330.811622 C330.821736 330.084877 331.870076 329.635353 332.730672 328.961097 C336.442586 326.052894 340.110005 323.096473 341.316182 317.471107 M311.316243 903.471107 C309.316243 900.970009 307.107381 898.606605 305.353474 895.943519 C298.904805 886.152015 292.890645 876.057289 286.056172 866.548866 C284.316426 864.128334 279.942891 861.958900 277.156453 862.351234 C273.729573 862.833778 272.078877 867.085365 272.416951 870.798622 C272.724812 874.179847 273.032002 878.049843 274.811543 880.725136 C283.222493 893.369667 289.729817 907.385902 301.433491 917.725136 C305.443623 921.267860 308.570393 925.789833 312.345052 929.623939 C320.395467 937.801185 328.566487 945.861000 336.775655 953.879432 C339.065510 956.116249 340.202412 955.684974 340.433430 952.200722 C340.591573 949.815590 341.486653 947.287880 342.702779 945.203407 C345.461507 940.474891 343.374226 937.494911 340.073140 934.094276 C330.485127 924.217323 321.212544 914.034096 311.316243 903.471107 M790.316182 245.471107 C790.580220 245.637794 790.833760 245.824318 791.109639 245.968239 C797.162984 249.126930 804.719014 250.816322 807.425069 257.835670 C809.894429 264.240577 813.856099 268.081886 820.176167 270.000221 C821.339009 270.353187 822.619649 270.857033 823.438008 271.691322 C825.022359 273.306373 826.179585 272.715919 826.238301 270.974220 C826.498555 263.238746 826.932637 255.320656 820.317647 249.501808 C812.260274 242.414406 803.002339 237.378273 793.270161 232.852516 C774.545796 224.145180 755.405537 217.021156 735.118794 212.800392 C727.552510 211.226234 721.600484 212.761024 717.445332 218.681740 C715.398823 221.598060 715.453633 225.988930 714.557515 229.712501 C719.129658 230.465370 724.549214 233.125831 728.088643 231.553688 C734.453877 228.726417 740.237935 228.624733 746.595601 229.953285 C761.654439 233.100197 776.165669 237.788002 790.316182 245.471107 M600.816182 1031.971107 C604.992879 1033.147743 610.175679 1033.184974 613.106099 1035.772987 C617.309224 1039.484657 621.477010 1040.253700 626.487752 1039.999672 C628.961812 1039.874183 631.463826 1040.200599 633.925435 1039.992470 C634.624837 1039.933265 635.918355 1038.406654 635.769917 1038.072914 C632.976399 1031.789222 628.954121 1026.178505 622.799275 1023.137489 C611.983479 1017.793373 600.007649 1016.249672 588.198323 1015.123451 C574.377827 1013.805458 560.451253 1013.239906 546.563679 1013.112709 C537.496419 1013.029701 529.105489 1015.659340 522.687764 1022.982460 C518.047871 1028.277015 517.875447 1029.124550 524.560994 1030.563637 C529.263142 1031.575599 534.032552 1034.625648 539.051533 1031.703895 C543.441365 1029.148353 547.576497 1028.032387 553.119282 1028.684974 C568.599263 1030.507606 584.239339 1030.971107 600.816182 1031.971107 M909.816182 902.971107 C916.290791 895.829750 923.096211 888.953529 929.114033 881.446083 C932.627217 877.063392 936.527119 874.435585 941.999654 873.973549 C947.550191 873.504799 951.250142 870.417640 954.035298 865.800331 C956.055196 862.451698 955.580464 860.503700 951.781514 858.817787 C944.849995 855.742103 932.494771 857.421058 927.002949 862.816200 C919.680562 870.009681 912.339131 877.192055 905.252217 884.614540 C899.402364 890.741493 893.671406 897.016395 888.341450 903.593422 C884.604390 908.204994 881.581197 913.402992 878.327412 918.396400 C873.039937 926.510780 874.866963 935.499183 875.413594 944.283119 C875.468770 945.170204 876.878682 945.973060 877.659932 946.814857 C878.211934 946.148720 878.709248 945.425941 879.327290 944.828163 C880.690938 943.509193 882.249287 942.368934 883.482564 940.943275 C885.210957 938.945228 887.872090 936.873817 888.105489 934.623329 C888.894185 927.019203 892.477803 921.241371 897.689351 916.031288 C901.720967 912.000526 905.451680 907.668861 909.816182 902.971107 M300.316182 875.471107 C301.847310 877.668861 303.225178 880.003944 304.998128 881.985145 C305.568989 882.622963 307.908528 882.825111 308.206502 882.387489 C312.353657 876.296669 315.469746 869.199623 313.657368 862.185097 C311.329915 853.177162 307.344624 844.485023 303.211629 836.080604 C295.577534 820.556556 287.673726 805.139442 279.181538 790.072792 C274.117390 781.087684 265.464864 777.725990 255.214009 779.042152 C254.183003 779.174476 252.727925 780.101112 252.411763 780.993080 C251.050740 784.832680 256.131306 793.348427 259.901387 795.227821 C262.968037 796.756264 266.525227 798.713417 268.150960 801.485512 C277.162312 816.851112 285.734212 832.477943 294.271260 848.116493 C297.349446 853.755287 299.775349 860.018959 298.070637 866.359535 C297.073262 870.069374 297.616231 872.420936 300.316182 875.471107 M229.816182 450.971107 C235.502522 440.759987 240.872761 430.233864 249.665425 422.288368 C255.907185 416.647926 262.310261 411.382118 266.923970 404.117897 C268.902302 401.002968 268.729085 399.636574 265.396565 399.675392 C260.785237 399.728981 255.718526 399.616676 251.676472 401.427467 C243.523091 405.079872 237.243672 411.429054 232.326436 418.948768 C223.648946 432.218910 217.431416 446.666725 212.351826 461.613075 C209.088643 471.214577 204.171406 480.520302 206.309407 491.251808 C207.875264 499.111610 210.027364 506.666420 216.766743 511.876564 C217.472005 512.421791 218.468098 512.899086 219.292805 512.845619 C219.678731 512.820656 220.040669 511.476112 220.303975 510.692726 C220.992268 508.644325 221.307393 506.401771 222.335774 504.550148 C224.662251 500.361305 223.972249 496.963112 221.214131 493.116981 C219.505757 490.734718 218.376546 487.296486 218.466023 484.377540 C218.832844 472.416054 224.631428 462.097999 229.816182 450.971107 M198.816182 705.971107 C197.368855 703.971107 195.945393 701.953285 194.468831 699.975136 C192.068196 696.758827 188.329915 693.878090 187.480183 690.303383 C185.643880 682.578529 184.513631 674.505043 184.496297 666.571083 C184.470296 654.684303 185.926472 642.801857 186.221944 630.904396 C186.430012 622.526344 189.388814 615.862404 195.430745 610.110389 C197.138203 608.484718 197.590474 605.386513 198.258321 602.868202 C198.865254 600.579262 199.168904 598.164894 199.223408 595.797035 C199.244832 594.867409 198.080525 593.049660 197.704549 593.112892 C195.433308 593.494911 192.878255 593.800270 191.079549 595.068886 C186.311604 598.431862 179.847737 601.385109 177.777486 606.125404 C174.402425 613.853859 172.974751 622.821449 172.537068 631.359047 C171.753255 646.649269 172.218709 662.009559 172.376729 677.338417 C172.422993 681.826088 172.704121 686.422035 173.726399 690.768593 C176.919575 704.345497 187.106709 711.246620 199.105061 716.157509 C199.420003 716.286415 200.690572 715.274696 200.647359 714.893348 C200.327473 712.071937 199.787190 709.275429 198.816182 705.971107 M211.316243 812.471107 C210.982869 813.665931 210.102986 815.021889 210.400532 816.030556 C213.461812 826.408363 215.963765 837.040199 220.083394 846.996376 C226.705464 863.000770 237.895039 876.354652 247.449788 890.646156 C252.670735 898.455482 260.362508 901.531166 269.184529 901.872963 C277.369893 902.189979 278.080098 900.950477 274.197896 893.956459 C272.872761 891.569252 270.349934 888.520790 268.070393 888.239540 C261.389119 887.415687 256.216084 884.930824 252.911458 879.037391 C250.112508 874.045570 247.319661 869.039711 244.797322 863.905800 C238.883137 851.868568 233.210530 839.712440 227.277302 827.684852 C224.953389 822.973671 223.943867 817.950233 226.469441 813.501259 C229.982320 807.312660 225.773701 803.323402 223.433247 798.785072 C222.958272 797.863930 219.858906 797.089882 219.589131 797.452675 C216.344319 801.815346 211.171345 805.120399 211.316243 812.471107 M265.316182 873.471107 C263.525594 868.901527 264.004903 864.534462 266.301045 860.236122 C270.111897 853.102455 277.618794 850.791054 283.889668 855.141517 C285.906697 856.540809 287.419087 858.653724 289.244710 860.351600 C289.801289 860.869423 290.632832 861.091469 291.338460 861.448890 C291.402791 860.527992 291.675252 859.560097 291.480611 858.697670 C291.213826 857.515785 290.727254 856.333412 290.102681 855.290077 C281.085713 840.225746 272.040669 825.178016 262.961140 810.151161 C262.262776 808.995277 261.254292 808.026771 260.390034 806.971107 C260.032063 808.207680 259.567403 809.424476 259.334737 810.684242 C258.340291 816.067787 257.047566 820.848915 250.892659 823.128334 C246.148030 824.885292 242.665974 823.383949 238.954427 821.124061 C238.051167 820.574013 237.078267 820.138222 236.137410 819.649818 C236.176961 820.903480 235.998189 822.210487 236.289021 823.402870 C240.235799 839.586952 248.383748 854.002479 255.744466 868.716102 C257.634419 872.493934 260.981770 875.559486 263.782185 878.847938 C264.243977 879.390175 265.340596 879.391884 266.143819 879.643471 C266.201314 878.779213 266.412495 877.889320 266.274373 877.057533 C266.126485 876.166908 265.649556 875.330971 265.316182 873.471107 M553.816182 1071.971229 C555.843526 1072.304481 557.869282 1072.914222 559.898579 1072.926552 C573.890462 1073.011146 587.883076 1072.986610 601.875325 1072.948280 C603.356099 1072.944252 604.835896 1072.624061 606.316182 1072.450477 C605.017415 1071.624061 603.817403 1070.518348 602.403279 1070.017982 C595.176228 1067.460975 589.889546 1057.737709 592.348408 1050.949501 C594.092976 1046.133339 597.393880 1042.907997 602.637898 1041.913734 C603.273457 1041.793251 603.760396 1040.888588 604.316182 1040.347328 C603.677815 1039.888588 603.060017 1039.071937 602.397603 1039.033973 C599.741109 1038.881752 597.059041 1039.134193 594.407490 1038.943886 C581.324788 1038.004188 568.249715 1036.957802 555.168294 1035.999672 C554.247761 1035.932411 553.297261 1036.274696 552.360677 1036.426552 C552.684163 1037.446327 552.746236 1038.676430 553.371419 1039.453407 C559.731465 1047.357460 555.153035 1058.699745 547.003926 1062.798256 C544.793355 1063.910072 542.588765 1065.058632 540.521931 1066.405922 C540.185200 1066.625404 540.389241 1068.613930 540.668355 1068.697548 C544.684956 1069.897987 548.757222 1070.912269 553.816182 1071.971229 M251.316182 621.471107 C250.982869 620.943519 250.573689 620.448829 250.327962 619.883156 C247.938557 614.382789 246.259114 608.410988 242.968281 603.521950 C240.748311 600.223732 236.266194 598.448097 232.795918 595.991371 C231.969380 599.643165 230.910847 603.263954 230.416707 606.960182 C230.179280 608.736122 230.353474 611.393776 231.467488 612.379616 C236.137776 616.512855 237.043172 622.224647 237.120564 627.515907 C237.342366 642.680702 236.768819 657.863075 236.236836 673.028969 C236.094075 677.098305 235.825215 681.531776 234.138386 685.100380 C230.767964 692.230385 231.024922 699.737098 230.460896 707.174476 C230.380696 708.231849 232.918416 710.534218 233.115987 710.413368 C238.411885 707.177772 244.614522 704.528114 246.234395 697.767494 C248.242573 689.386390 250.700886 680.909584 251.092488 672.387977 C251.855672 655.780617 251.316182 639.113502 251.316182 621.471107 M751.816182 1045.971107 C749.951558 1047.835731 748.032979 1049.650673 746.242085 1051.583534 C745.164082 1052.747108 744.284810 1054.094642 743.316182 1055.359535 C744.904561 1055.896766 746.682881 1057.187660 748.049092 1056.843300 C754.645161 1055.181068 761.455464 1053.789467 767.587422 1050.984779 C780.491475 1045.082924 793.024678 1038.368812 805.685078 1031.938514 C806.290425 1031.631019 806.653950 1030.847084 807.130147 1030.285072 C806.311909 1029.847084 805.472798 1029.002968 804.679341 1029.043983 C801.808980 1029.192177 798.945821 1029.976478 796.094380 1029.909462 C786.435078 1029.682289 780.250630 1018.572792 785.392476 1010.656898 C786.464375 1009.006752 788.627827 1008.103309 790.056905 1006.631019 C790.751851 1005.915077 790.913228 1004.681312 791.316182 1003.681801 C790.427266 1003.778236 789.461446 1003.681312 788.661275 1004.000282 C779.224141 1007.762245 769.830708 1011.634071 760.386616 1015.377968 C753.802388 1017.988197 747.140767 1020.402992 740.559834 1023.021400 C739.673238 1023.374183 739.057393 1024.407020 738.316182 1025.124916 C739.297993 1025.407020 740.289693 1025.658729 741.259785 1025.976722 C744.045796 1026.889686 747.350850 1027.168983 749.500874 1028.887123 C755.101704 1033.363197 755.237569 1039.279335 751.816182 1045.971107 M627.816121 1087.971107 C631.228413 1084.225502 634.695698 1080.526649 637.970540 1076.664345 C638.310200 1076.263710 637.525716 1074.096351 637.227559 1074.088661 C631.240681 1073.931556 625.248311 1073.944130 619.258321 1074.018959 C618.740010 1074.025429 618.124837 1074.616005 617.732075 1075.084266 C612.010701 1081.903847 603.998433 1082.631630 596.023152 1082.874916 C590.518330 1083.042640 584.989339 1082.224525 579.465108 1081.988930 C570.120137 1081.590492 560.746114 1081.613441 551.430073 1080.878578 C543.159993 1080.226234 535.046040 1077.851112 530.488057 1070.359901 C527.119771 1064.823768 521.922749 1065.083046 517.087483 1064.097206 C513.596394 1063.385292 512.594624 1064.972328 514.222371 1068.667763 C518.661824 1078.746498 527.338521 1084.096962 536.667927 1087.771034 C551.012105 1093.420326 566.446248 1094.839149 581.713460 1095.799232 C591.169209 1096.393593 600.768513 1095.707924 610.231343 1094.825111 C616.246785 1094.263954 622.477132 1093.108925 627.816121 1087.971107 M704.316182 255.471107 C707.019185 256.174171 709.691304 257.049171 712.432027 257.543190 C717.568135 258.469032 722.765401 259.847023 727.894307 259.684181 C730.417866 259.604103 733.344136 256.912330 735.193745 254.666054 C737.672261 251.655983 736.201314 248.302406 733.234639 246.555519 C728.878560 243.990455 724.296284 241.442055 719.472432 240.114601 C709.408467 237.344948 699.198384 234.930580 688.908467 233.204201 C677.587910 231.304786 666.123982 230.192482 654.685750 229.134804 C652.999776 228.978981 650.456868 230.591102 649.458882 232.130043 C647.648518 234.921974 646.494160 238.211403 645.524556 241.431373 C645.241780 242.370521 646.254719 244.520241 647.125813 244.825477 C649.329121 245.597755 651.797078 245.589638 654.144856 245.979469 C663.634419 247.555275 673.132588 249.085121 682.599995 250.785072 C689.693989 252.058937 696.745625 253.567238 704.316182 255.471107 M979.316182 381.471107 C978.141621 378.629921 977.467915 375.422645 975.705342 373.011329 C968.386494 362.999306 961.430562 352.584144 953.021504 343.545021 C944.291280 334.160682 934.051045 326.178505 924.447041 317.610206 C916.201558 310.254066 906.521626 311.304909 896.781758 313.078956 C895.878682 313.243446 894.594868 314.180153 894.458150 314.934242 C894.301045 315.799293 894.997090 317.101112 895.722920 317.793800 C898.423848 320.371559 901.188008 322.907264 904.133565 325.194618 C905.688130 326.401649 907.595723 327.263405 909.469624 327.924904 C912.381978 328.953102 915.910664 328.965370 918.282857 330.660927 C926.193135 336.315346 934.134541 342.063881 941.247578 348.657081 C948.163716 355.067726 954.662373 362.130409 960.242818 369.717018 C964.798360 375.910072 969.875630 383.115089 968.004658 391.198829 C966.452656 397.905006 970.603535 401.687172 972.583028 406.645180 C972.940572 407.540687 974.163960 408.090492 974.987447 408.799904 C975.575215 407.878700 976.341450 407.025490 976.722432 406.025490 C979.625508 398.407448 981.975728 390.708778 979.316182 381.471107 M927.316182 422.471107 C932.354756 423.971107 937.381245 425.517738 942.465596 426.842140 C942.738301 426.913124 944.185078 424.620643 943.926656 424.260780 C940.661885 419.716713 939.649922 413.346718 933.238057 411.268287 C931.526265 410.713417 930.024556 409.166481 928.703877 407.805763 C921.349873 400.229042 914.060689 392.588905 906.790547 384.931312 C901.926656 379.808143 896.909810 374.805641 892.376729 369.400856 C888.844014 365.188576 884.314229 360.823158 883.146992 355.841774 C881.261494 347.793251 874.621114 344.589088 870.022114 339.371803 C867.839741 336.895973 865.140523 338.205360 864.315938 341.573646 C862.839009 347.606300 864.139058 353.330360 866.655171 358.752052 C872.118794 370.525795 882.074727 378.815956 890.382100 388.328346 C897.374287 396.334755 905.175069 403.666054 912.935811 410.957863 C917.225239 414.988136 922.167989 418.322853 927.316182 422.471107 M248.816182 519.971107 C255.218953 520.315101 260.819844 518.169899 266.112447 514.716713 C276.430440 507.984779 281.905415 497.476967 287.197530 487.069679 C293.537190 474.602272 299.188008 461.769874 304.757344 448.930702 C308.513264 440.272072 308.769551 431.439674 303.233357 423.253456 C302.239827 421.784279 300.164815 421.046547 298.589131 419.971107 C296.164815 423.641090 291.342793 427.616676 291.764302 430.923927 C293.045125 440.973671 290.708882 450.115577 286.791707 458.718727 C281.680562 469.944191 275.625325 480.806556 269.162617 491.325294 C265.111897 497.918373 260.901265 505.291237 251.171162 505.111305 C250.238057 505.094093 248.928364 506.885414 248.385884 508.101417 C247.198323 510.763649 246.311970 513.571144 245.451436 516.365150 C244.599934 519.129921 245.253072 519.970558 248.816182 519.971107 M954.816182 906.971107 C947.985005 908.043373 943.512349 904.207680 939.419942 899.575844 C936.358052 896.110634 937.003316 892.321571 938.250386 888.367958 C938.555928 887.399086 938.045308 886.172767 937.909810 885.064735 C936.871480 885.707313 935.603169 886.146889 934.829854 887.023353 C925.605489 897.478798 916.512471 908.050575 907.252217 918.473915 C904.165059 921.949013 900.620259 925.014931 897.469258 928.437782 C896.784932 929.181190 896.891255 930.652382 896.633443 931.788368 C897.651875 931.558510 898.720967 931.455604 899.678731 931.073646 C902.104024 930.106239 904.515889 928.055824 906.867818 928.145546 C914.827779 928.449379 921.309468 937.806556 919.281514 945.444496 C918.852437 947.060585 917.680684 948.511635 917.422139 950.130043 C917.249165 951.211708 918.086079 952.454994 918.470967 953.625892 C919.294087 953.032875 920.284932 952.579384 920.913594 951.824501 C925.430684 946.399330 929.619893 940.678383 934.397114 935.497719 C942.878682 926.299843 951.713399 917.427894 960.361348 908.382606 C960.994771 907.720131 961.314107 906.757484 961.779439 905.934364 C960.643452 905.761513 959.492207 905.389320 958.375752 905.474281 C957.336568 905.553261 956.334614 906.119423 954.816182 906.971107 M252.316182 477.471107 C255.756367 480.550331 258.770955 483.821022 258.385945 488.969581 C258.341084 489.569008 259.254048 490.240089 259.723042 490.877968 C260.254109 490.327980 260.946492 489.863136 261.289021 489.213722 C263.014851 485.941383 264.871785 482.712379 266.275044 479.300514 C270.719746 468.493812 274.908833 457.582130 279.346883 446.772682 C281.622395 441.230507 281.292866 440.531410 275.574849 441.001625 C274.679402 441.075355 273.835530 441.638893 272.936909 441.833717 C267.538167 443.004616 258.632649 438.893959 258.274495 435.455971 C258.015156 432.967079 257.369954 430.518348 256.896748 428.051735 C255.367757 430.193641 253.644551 432.224220 252.341939 434.495949 C244.944356 447.396889 237.435628 460.242836 230.454671 473.368080 C228.543050 476.962135 228.176900 481.426613 227.415974 485.549660 C227.230122 486.556740 228.284505 487.792763 228.768635 488.923561 C229.617818 487.975746 230.777852 487.165504 231.267781 486.058571 C235.819295 475.776039 241.652364 473.154457 252.316182 477.471107 M980.316182 470.471107 C981.275166 470.971107 982.222310 471.874794 983.195088 471.903297 C988.188496 472.049782 993.190327 471.894142 998.185689 472.001808 C1000.919575 472.060768 1000.758565 470.748085 999.827534 469.015419 C999.235493 467.913795 998.307027 466.988380 997.748067 465.874306 C987.708272 445.865639 977.679951 425.839760 964.259419 407.799049 C961.077779 403.522011 957.481099 399.434791 953.474629 395.951088 C951.949361 394.624733 948.523213 394.509376 946.341084 395.142921 C943.079610 396.089638 941.125264 399.193397 942.437764 402.493690 C944.596822 407.922401 947.298115 413.174660 950.180684 418.269325 C959.962178 435.558143 969.923604 452.745155 980.316182 470.471107 M917.316182 338.471107 C917.236836 339.725075 916.644307 341.267677 917.161153 342.186134 C920.543477 348.196632 919.729634 353.444435 915.290547 358.636879 C911.007588 363.646522 905.899068 363.507972 900.278218 362.492347 C899.204976 362.298317 898.014546 362.753395 896.878316 362.909035 C897.444722 363.850136 897.839619 364.974464 898.610860 365.696571 C900.608662 367.567116 902.808736 369.219398 904.861592 371.033912 C908.282979 374.058082 911.872212 376.933693 914.995503 380.244667 C920.462178 386.040016 925.635152 392.112770 930.915913 398.082741 C931.667500 398.932472 932.333028 399.858314 933.038350 400.748939 C933.464375 399.594520 934.196309 398.458473 934.267110 397.282631 C934.776997 388.820106 941.136128 382.872047 949.324116 384.145057 C952.184834 384.589821 954.719258 387.068580 957.434468 388.560402 C958.070332 388.909828 958.835835 389.023475 959.541646 389.245643 C959.587910 388.442177 959.922505 387.514076 959.637105 386.853981 C955.145406 376.464210 948.723286 367.263038 940.895406 359.233070 C933.604512 351.753822 925.540059 345.028358 917.316182 338.471107 M811.316182 1037.471107 C810.328633 1038.637733 809.542989 1040.115883 808.315205 1040.911903 C804.800435 1043.190834 801.222066 1045.431923 797.459737 1047.256874 C788.451436 1051.626381 779.576070 1056.463051 770.178731 1059.787147 C758.897725 1063.777382 747.153218 1068.186928 735.524190 1060.042640 C734.741719 1059.494667 733.158101 1059.695717 732.090596 1060.020180 C728.107564 1061.230629 724.134053 1062.514442 720.282979 1064.080360 C719.556905 1064.375648 718.927144 1066.947548 719.060200 1067.021766 C724.591450 1070.108192 729.946065 1074.702553 735.877339 1075.654945 C753.109151 1078.421669 769.028096 1072.174965 784.348653 1065.230018 C794.752339 1060.513832 804.714497 1054.732338 814.554463 1048.888954 C824.457173 1043.008461 833.024312 1035.760780 835.396260 1023.463905 C835.899434 1020.855385 835.501729 1019.048256 832.877583 1020.086220 C825.737447 1022.910438 816.369893 1022.736000 814.242207 1032.993446 C813.945210 1034.425575 812.649556 1035.650429 811.316182 1037.471107 M400.316182 297.471107 C398.376240 292.351478 400.140462 288.310341 403.933430 284.812477 C404.399739 284.382484 404.594136 283.657692 404.914632 283.069557 C404.234517 282.703407 403.497395 281.955299 402.885579 282.046608 C401.376240 282.271827 399.784322 282.635414 398.473592 283.379860 C392.401509 286.828895 386.190144 290.101478 380.450886 294.050880 C372.744282 299.354103 365.399617 305.187050 357.955708 310.866127 C355.519612 312.724708 355.655049 314.436928 358.891438 314.930885 C364.332356 315.761329 368.749287 318.416603 372.217549 322.466041 C375.741170 326.580116 377.918050 331.205482 375.394978 336.836586 C375.123006 337.443641 375.940572 338.538856 376.252766 339.407692 C376.958577 339.077492 377.775960 338.880531 378.352986 338.396705 C384.907368 332.901466 391.367757 327.292824 397.972005 321.858864 C402.524678 318.112892 407.243977 314.567787 411.932637 310.990211 C412.965596 310.202064 414.183491 309.656349 415.316182 308.998939 C414.035664 308.323036 412.824239 307.408546 411.462239 307.013893 C406.524007 305.583229 403.335469 302.195045 400.316182 297.471107 M586.816182 197.971107 C578.465718 198.304420 570.034871 198.031410 561.785176 199.125038 C551.543233 200.482704 541.348897 202.562050 531.319722 205.072059 C518.055318 208.391762 508.641927 216.485573 504.140889 229.699257 C503.788411 230.734169 503.994710 231.959450 503.941304 233.096168 C504.980489 232.973610 506.063252 232.996437 507.050557 232.700783 C509.855855 231.860573 512.622273 230.890236 515.404011 229.971229 C517.600117 229.245643 520.362630 229.125648 521.895711 227.691383 C529.015645 221.030250 537.949605 218.917640 546.976521 217.004555 C555.573994 215.182411 564.173482 213.159096 572.879170 212.126869 C579.500569 211.341835 586.301533 212.189125 592.995930 211.822548 C594.736531 211.727150 596.748738 210.115944 597.972798 208.647926 C599.631489 206.658546 600.651875 204.136757 601.943928 201.842262 C602.274007 201.256080 602.596333 200.665626 602.922261 200.077186 C602.242757 199.708473 601.588155 199.081459 600.879719 199.013405 C596.531941 198.595680 592.172078 198.304420 586.816182 197.971107 M982.816182 881.971107 C981.442891 882.011146 979.135884 881.582191 978.843404 882.164833 C976.419820 886.991737 972.523213 891.102943 973.082295 897.375770 C973.375142 900.661781 971.999654 904.681190 970.071675 907.465004 C965.341573 914.294716 960.201680 920.918007 954.593526 927.044838 C945.119893 937.394569 935.299824 947.441932 925.292866 957.278236 C922.986836 959.544960 919.432027 961.394325 916.277364 961.714271 C912.849019 962.061928 910.336568 962.895668 908.264424 965.505043 C906.660664 967.524696 904.968892 969.474647 903.316182 971.455604 C905.567647 972.045692 907.833882 972.585121 910.068013 973.234779 C917.373799 975.359779 924.031148 972.993812 929.605122 968.908241 C936.412862 963.918373 943.031026 958.337196 948.541280 951.980263 C959.238667 939.638832 969.237935 926.679847 979.252705 913.764564 C983.407613 908.406166 987.490132 902.665565 986.263325 895.231117 C985.554219 890.932655 984.316182 886.721596 982.816182 881.971107 M375.816182 361.971046 C384.212422 356.908119 392.770894 352.092201 400.959614 346.713295 C409.268208 341.255653 417.003316 334.917091 425.367879 329.554359 C435.861470 322.826698 440.532429 313.082741 442.437154 301.228004 C443.287862 295.933388 439.977620 297.619911 438.388570 298.614235 C434.574544 301.000770 429.571675 301.980568 428.070271 307.499611 C427.454610 309.762733 425.183675 311.790626 423.252766 313.443092 C415.544453 320.039711 407.884297 326.725258 399.796101 332.834877 C393.441121 337.635231 386.630452 341.890968 379.735005 345.893959 C375.915913 348.111061 371.465779 350.762184 367.372945 350.646278 C360.467122 350.450783 355.918294 353.111549 351.738911 357.959022 C348.692952 361.491859 348.721944 362.610145 353.292256 363.930824 C360.765279 366.090370 368.124409 365.224891 375.816182 361.971046 M783.316182 253.471107 C771.519063 249.007362 759.734517 244.509437 747.897114 240.155067 C747.090352 239.858253 745.666402 240.394325 744.963765 241.026039 C744.627461 241.328346 745.012471 243.040504 745.575703 243.639076 C749.810323 248.139442 749.014302 258.069801 745.119282 262.673439 C743.040303 265.130592 740.991719 267.613258 738.929463 270.084450 C741.888814 271.377052 744.843892 272.679298 747.814107 273.946693 C748.095723 274.066932 748.500996 273.880592 748.797871 273.983681 C760.581441 278.075966 772.354390 282.199318 784.149312 286.258400 C784.862447 286.503822 785.745015 286.256630 786.548726 286.238624 C786.236714 285.414894 786.128682 284.408546 785.580586 283.796058 C780.795064 278.448646 780.150166 275.124672 783.012715 269.774635 C786.316060 263.600868 789.221211 262.462379 797.180928 263.896339 C798.131367 264.067543 799.266621 263.212318 800.316182 262.832924 C799.645894 261.879005 799.185200 260.465004 798.270161 260.048256 C793.515889 257.882545 788.645894 255.971107 783.316182 253.471107 M201.816182 671.971107 C206.251179 667.055214 211.789693 665.489296 217.731953 668.143959 C220.404805 669.337929 222.204427 672.441078 224.484517 674.588539 C225.126912 675.193641 226.067647 675.482094 226.871541 675.915809 C227.019795 675.144813 227.281575 674.376381 227.299336 673.602455 C227.655110 658.092689 227.997151 642.582618 228.283833 627.071510 C228.302876 626.042396 227.857686 625.004799 227.628438 623.971107 C226.843098 624.819008 226.053731 625.663246 225.273396 626.515663 C223.916585 627.998085 222.794820 629.830055 221.172078 630.911598 C214.076619 635.640541 205.177388 632.447548 201.270894 625.942787 C200.638264 624.889259 199.406880 624.195228 198.452229 623.335060 C197.740193 624.538368 196.507466 625.698646 196.403828 626.952247 C195.879903 633.290809 195.487202 639.650245 195.356770 646.008766 C195.189595 654.162391 195.188313 662.325172 195.380818 670.477699 C195.455037 673.621620 196.257283 676.748207 196.727864 679.882728 C198.257283 677.412147 199.786702 674.941688 201.816182 671.971107 M1047.316182 738.471107 C1046.982930 739.665809 1046.655049 740.861976 1046.315327 742.054847 C1042.973164 753.787514 1040.244282 765.675331 1034.433003 776.629188 C1030.816182 783.446815 1024.380025 788.836220 1023.688496 797.141151 C1023.549947 798.804970 1023.911031 800.510414 1024.041768 802.196693 C1025.435200 801.652870 1027.062520 801.401527 1028.177632 800.509559 C1031.335957 797.983192 1035.207295 795.729286 1037.134297 792.404091 C1041.918233 784.148231 1046.489156 775.625770 1049.855122 766.722450 C1056.321675 749.618080 1061.650166 732.191078 1061.430196 713.488441 C1061.301411 702.544716 1057.530293 693.813148 1048.939107 687.152992 C1048.124409 686.521400 1046.785664 685.853676 1045.989522 686.114906 C1045.228535 686.364540 1044.377705 687.813759 1044.393819 688.720863 C1044.501118 694.765297 1043.591206 700.743690 1047.181660 706.554237 C1053.382222 716.587929 1049.666035 727.137733 1047.316182 738.471107 M805.816182 298.971107 C802.901875 297.971107 800.050557 296.444496 797.059468 296.087379 C791.813863 295.461097 786.131856 296.662819 781.255635 295.124489 C768.801289 291.195289 756.687642 286.185463 744.443013 281.593727 C738.537617 279.379249 731.829976 278.232704 726.950948 274.622413 C720.818135 270.084450 714.136739 267.737587 707.232320 265.352577 C703.833882 264.178688 702.629658 265.441200 703.386250 268.660743 C703.726826 270.109840 704.797627 271.396766 705.582661 272.730446 C709.425557 279.259315 715.601704 282.202675 722.470357 284.789345 C740.886861 291.724830 758.986348 299.503700 777.411885 306.413795 C786.621114 309.867592 796.304707 312.189247 806.045918 307.917518 C808.588399 306.802589 810.842305 305.029457 813.228657 303.558632 C811.091206 302.029457 808.953633 300.500282 805.816182 298.971107 M1032.316304 762.471107 C1034.311787 756.808998 1036.835713 751.269081 1038.181660 745.456459 C1040.308369 736.271400 1041.915181 726.938392 1043.129414 717.588539 C1043.439107 715.203041 1041.444722 712.518348 1040.508931 709.971107 C1039.030293 711.885414 1037.546529 713.795936 1036.077534 715.717567 C1035.794087 716.088417 1035.550679 716.493324 1035.318745 716.899574 C1031.996236 722.720985 1027.503560 724.465980 1021.629536 721.927772 C1018.960713 720.774574 1017.969502 722.095741 1017.328145 724.219154 C1013.843159 735.756019 1010.346211 747.290199 1007.048970 758.881019 C1006.821797 759.679603 1008.080830 761.751381 1008.823018 761.844642 C1016.647847 762.828407 1022.586690 766.058632 1025.018330 774.115761 C1025.234029 774.830238 1026.071431 775.357094 1026.620137 775.971107 C1027.185445 775.411659 1028.004048 774.953163 1028.273946 774.275917 C1029.697652 770.704750 1030.982930 767.078407 1032.316304 762.471107 M537.816182 231.971107 C538.343892 232.304420 538.846272 232.876198 539.403096 232.935463 C548.474507 233.899879 551.569539 236.994789 551.179768 245.828468 C551.064107 248.449440 549.128865 250.947975 548.415059 253.606727 C548.155904 254.571998 549.045674 256.831947 549.380513 256.825844 C557.401875 256.679115 565.420552 256.334511 573.436665 255.961525 C579.819173 255.664528 584.243245 253.387855 585.463948 246.177467 C586.382954 240.749061 588.651875 235.549537 590.315510 230.246742 C592.063740 224.674293 591.559773 223.672340 585.647298 224.046791 C573.894490 224.791115 562.087483 225.443214 550.474995 227.243995 C546.136006 227.916786 540.722615 227.156227 537.816182 231.971107 M407.316182 965.471107 C411.000325 967.821937 414.693867 970.158241 418.366719 972.526405 C426.102437 977.514198 434.123860 982.170936 436.413228 992.255653 C436.870320 994.269325 438.179402 996.523597 439.793355 997.744423 C442.597859 999.865761 445.931905 1001.295326 449.071858 1002.962196 C451.485615 1004.243446 453.104573 1004.417274 453.376179 1000.773353 C454.172566 990.086586 450.989156 980.536171 443.161031 973.645912 C434.524373 966.043861 424.732503 959.742958 415.343587 953.015053 C413.050191 951.371864 410.365498 950.274696 407.860738 948.926552 C406.679219 951.764198 405.707234 954.714027 404.264668 957.412025 C402.335774 961.019935 402.836079 963.505165 407.316182 965.471107 M577.316121 270.471107 C577.826741 269.315040 578.337300 268.158973 578.847981 267.002907 C577.829488 266.666847 576.804585 266.020973 575.793477 266.041969 C563.619160 266.294472 551.349629 267.702614 539.308675 266.595131 C531.435445 265.871071 523.800801 263.494789 515.907185 265.998756 C514.650594 266.397377 513.127217 266.901893 512.472310 267.864479 C512.126912 268.372047 513.172200 270.170204 513.962727 271.050819 C519.346760 277.049171 526.256306 279.970314 534.195088 279.908668 C545.368611 279.821998 556.540791 279.025429 567.709431 279.106483 C572.263020 279.139503 575.179463 278.154213 576.284199 273.534035 C576.458333 272.805763 576.963887 272.156776 577.316121 270.471107 M404.816182 971.971107 C402.501668 970.322059 399.909688 968.127846 398.366414 972.515419 C395.199116 981.520180 392.238423 990.600502 389.359456 999.702308 C388.389119 1002.769935 388.190266 1005.788856 391.671162 1007.887245 C396.482747 1010.787758 401.071980 1014.057899 405.892903 1016.941688 C407.238301 1017.746620 409.064717 1017.747230 410.670491 1018.116737 C409.925496 1016.941322 409.350301 1015.603676 408.407613 1014.617225 C402.779073 1008.726967 402.319295 998.850380 407.992818 993.928505 C412.477864 990.037636 417.605977 987.309486 423.972859 989.900551 C424.868428 990.264808 426.150594 989.679237 427.253804 989.533485 C426.708272 988.613075 426.264668 987.607338 425.586934 986.797645 C424.982930 986.076088 424.138203 985.546791 423.368184 984.975136 C417.521870 980.634559 411.667866 976.304359 404.816182 971.971107 M381.316121 1026.471107 C386.531514 1029.971107 391.536519 1033.854896 397.022359 1036.861366 C402.340352 1039.776039 407.994099 1042.854774 414.372578 1041.878822 C421.008748 1040.863319 427.539937 1039.145057 434.095296 1037.639320 C434.904317 1037.453529 435.579182 1036.683754 436.316182 1036.184486 C435.594685 1035.446693 434.972432 1034.559120 434.131184 1034.001991 C432.320210 1032.802528 430.386616 1031.789589 428.521138 1030.670570 C424.321736 1028.151893 420.567830 1024.507850 414.832234 1026.841591 C413.271138 1027.476722 410.911397 1026.925575 409.187642 1026.240761 C403.753194 1024.082191 398.554585 1021.292885 393.047749 1019.368568 C390.036702 1018.316322 387.961079 1012.917274 384.535359 1015.962806 C382.362202 1017.894935 382.316182 1022.219520 381.316121 1026.471107 M1030.316182 647.471107 C1029.022969 646.431007 1027.729756 645.390907 1026.436543 644.350807 C1026.063130 646.025062 1025.563985 647.683693 1025.354146 649.378151 C1025.171651 650.851967 1025.316182 652.366188 1025.316182 653.862587 C1025.316182 659.515602 1026.128926 665.325660 1025.075581 670.775062 C1024.121480 675.711708 1024.797627 679.558388 1027.315694 683.652626 C1028.153462 685.014808 1028.151021 687.311439 1027.714497 688.964638 C1026.178364 694.779579 1023.827046 700.417518 1022.763814 706.299598 C1022.357564 708.546547 1024.591695 711.270790 1025.622578 713.777504 C1027.345601 712.516884 1030.198018 711.543495 1030.604146 709.947792 C1032.838521 701.167152 1034.737447 692.278236 1036.229512 683.339393 C1037.336812 676.705848 1037.691060 669.943641 1038.304341 663.231788 C1038.905537 656.652138 1037.352925 651.074623 1030.316182 647.471107 M731.316182 58.471138 C737.982930 49.584480 744.620381 40.675697 751.326314 31.818733 C755.940327 25.724647 760.751729 19.776924 765.247823 13.598518 C766.447774 11.949714 766.812642 9.693214 767.560811 7.715675 C765.678120 9.101906 763.422383 10.177925 761.971455 11.923164 C749.752217 26.620613 737.392720 41.220192 725.771260 56.382606 C722.959614 60.051063 722.659199 65.681160 721.402974 70.461525 C721.234517 71.102455 722.241475 72.052254 722.704121 72.859016 C723.241475 72.157905 723.871602 71.508980 724.300557 70.746895 C726.500996 66.837684 728.649556 62.899330 731.316182 58.471138 M57.316182 935.471107 C52.351369 928.376991 45.285756 922.787758 42.278981 914.276771 C41.516530 912.118568 40.132863 909.690468 37.496144 911.624183 C36.711049 912.199867 36.973103 915.484901 37.840230 916.828285 C44.464192 927.089760 51.589009 937.032875 58.061940 947.385048 C61.052205 952.167396 62.916798 957.651039 65.326466 962.800453 C65.991139 964.220741 66.780812 965.582435 67.513142 966.971107 C68.114156 965.451210 69.412678 963.827186 69.203999 962.428016 C67.748738 952.670570 62.186452 944.715248 57.316182 935.471107 M333.816182 962.971107 C333.316182 964.926185 332.685933 966.861976 332.391316 968.847450 C332.296284 969.487953 333.084187 970.259559 333.468220 970.971107 C334.084187 970.491615 334.982075 970.138588 335.264668 969.509315 C336.207539 967.409706 337.198018 965.264564 337.642598 963.031776 C337.938924 961.544105 337.336201 959.877357 337.135884 958.290809 C336.195943 959.684242 335.256062 961.077675 333.816182 962.971107 M1062.316182 582.471107 C1062.199116 581.354042 1062.082051 580.236976 1061.964986 579.119972 C1061.141133 580.178016 1059.920674 581.134804 1059.616475 582.325660 C1059.365376 583.308632 1060.198262 584.568458 1060.550801 585.705665 C1061.139302 584.960853 1061.727803 584.215980 1062.316182 582.471107 M54.316182 951.471107 C54.665120 952.486732 54.999715 953.508217 55.401234 954.502601 C55.423695 954.558143 55.998463 954.390907 56.316212 954.327431 C55.816212 953.208656 55.316212 952.089882 54.316182 951.471107 z"/>
    <path class="selected" fill="#000000" opacity="1.000000" stroke="none"
          d="
M700.566182 593.721107 C696.350728 590.172279 692.227559 587.040016 688.488667 583.501808 C686.719014 581.827064 685.610982 579.418556 684.348775 577.257545 C683.770894 576.267860 683.544331 575.072975 683.158467 573.971107 C681.877705 574.649452 679.810567 575.044777 679.447530 576.053383 C677.511861 581.431740 675.343648 586.884681 674.674458 592.481422 C674.412251 594.674904 677.694600 597.435646 679.641865 599.697731 C680.867818 601.121742 682.738179 601.969703 684.103535 603.297951 C698.724263 617.521827 713.274678 631.818031 727.903706 646.033424 C734.407735 652.353493 741.298360 658.295021 747.546529 664.853309 C752.756612 670.322059 757.758809 676.130531 761.873067 682.428749 C763.432271 684.815834 763.103413 689.251014 762.181905 692.315590 C754.436787 718.072914 746.330952 743.721351 738.379536 769.416908 C731.660176 791.130653 724.891621 812.830116 718.364400 834.601722 C715.276509 844.901405 715.509053 844.971107 705.155537 844.971107 C652.336446 844.971107 599.514851 844.710609 546.700703 845.220863 C537.614156 845.308754 531.026021 841.906532 524.634297 836.725868 C519.468648 832.539100 514.194661 828.388099 509.602803 823.611732 C499.891927 813.510658 496.001851 802.102577 500.737752 787.853798 C510.047444 759.844398 518.568135 731.571205 527.290242 703.368568 C531.771016 688.880165 535.958394 674.301307 540.336751 659.780861 C541.203511 656.906532 541.970235 654.405739 545.770528 657.766945 C552.373433 663.606849 559.440755 668.921303 566.307088 674.463783 C576.422749 682.629310 586.827595 690.468422 596.556050 699.072059 C604.973836 706.516884 612.646260 714.808021 620.589070 722.783851 C622.295003 724.496864 623.600667 726.616615 625.347310 728.279457 C628.767537 731.535805 630.402241 735.020180 628.435628 739.786781 C628.028279 740.774330 629.148274 742.392006 629.564290 743.719154 C630.722249 743.062416 632.492635 742.679237 632.929951 741.700477 C634.622517 737.911537 635.968465 733.959022 637.294514 730.017250 C638.674275 725.915809 639.816243 721.734657 641.180562 717.627723 C643.135457 711.743080 638.829060 708.888832 635.448506 705.626625 C628.083089 698.519203 620.601704 691.531532 613.263875 684.395912 C598.401204 669.942909 583.628621 655.397316 568.761677 640.948707 C564.289204 636.601967 559.553609 632.525917 555.084798 628.175636 C552.879231 626.028541 551.969075 623.906105 553.143513 620.203834 C561.468220 593.961830 569.370991 567.585121 577.299092 541.218544 C583.717183 519.873817 590.041096 498.500221 596.261311 477.097206 C597.350972 473.347877 599.360615 471.917335 603.221760 471.922218 C659.539876 471.993446 715.858052 471.955238 772.176167 471.987648 C781.009541 471.992714 787.260884 476.645180 792.343404 483.454628 C796.927632 489.596535 801.765767 495.548317 806.450215 501.616188 C811.248555 507.831886 814.930318 514.699013 813.877339 522.715919 C813.224995 527.682533 810.801656 532.400856 809.331807 537.278358 C801.964497 561.723121 794.698872 586.198707 787.295674 610.632484 C783.486470 623.204506 779.425801 635.700172 775.554951 648.253822 C773.604024 654.580787 773.899922 654.345680 768.605977 649.860695 C757.686421 640.609596 746.465596 631.714760 735.450337 622.575172 C726.744771 615.352150 718.186543 607.951881 709.508321 600.695595 C706.700093 598.347511 703.718526 596.206703 700.566182 593.721107 M797.316060 536.471107 C798.649434 532.195106 799.561421 527.727394 801.401997 523.682167 C805.505879 514.661964 803.357442 506.616432 797.937642 499.231910 C794.111470 494.018898 789.460957 489.418068 785.314473 484.431007 C781.284444 479.583900 776.246236 477.878822 769.980733 477.894264 C715.661153 478.027748 661.340962 478.002113 607.021199 477.903480 C603.288045 477.896705 601.323750 478.712990 600.208760 482.698158 C595.454427 499.690223 590.374409 516.592750 585.277974 533.487098 C577.683980 558.660499 570.469624 583.965980 562.072041 608.870827 C558.734700 618.768593 558.481526 625.424110 567.805989 632.472694 C578.287251 640.395607 587.114339 650.519081 596.587361 659.760841 C612.977376 675.750770 629.267232 691.843788 645.710530 707.778480 C648.446492 710.429847 648.745930 712.804603 647.548238 716.395668 C644.805257 724.620521 642.664510 733.047401 640.323628 741.404701 C638.526082 747.822181 637.039571 748.971107 630.252339 748.971107 C626.253316 748.971107 622.234090 748.718422 618.260518 749.036415 C613.521809 749.415687 613.680745 747.240516 614.882222 743.856117 C616.174397 740.216224 617.320821 736.509804 618.245625 732.762123 C618.594624 731.347816 618.757588 729.185707 617.962910 728.302894 C611.916463 721.585243 606.117207 714.509804 599.286336 708.660560 C583.170552 694.861000 566.499959 681.710609 550.112141 668.226722 C546.171284 664.984108 544.940327 665.192665 543.332295 670.216957 C538.952107 683.903236 534.534810 697.579262 530.340718 711.323036 C522.167561 738.105995 514.157124 764.938514 506.036702 791.737587 C502.794270 802.438026 506.116475 814.021644 514.230427 820.423134 C518.408711 823.719520 522.527058 827.111122 526.461262 830.691688 C529.569905 833.520912 532.875264 835.036171 537.205342 835.028847 C590.025532 834.939979 642.845906 834.984047 695.666280 834.961097 C707.217305 834.956093 706.081074 836.724525 709.989278 824.770912 C710.376973 823.585243 710.376851 822.276039 710.731587 821.075844 C715.909077 803.561195 721.018697 786.025673 726.338643 768.554237 C734.716206 741.041298 743.304219 713.591957 751.585591 686.050453 C752.284688 683.725746 752.382222 679.909340 751.002827 678.474281 C737.861714 664.802894 724.405659 651.430885 710.912495 638.102211 C696.163350 623.532875 681.217305 609.162514 666.532490 594.529396 C664.713460 592.716774 662.465779 590.587135 663.640950 587.050697 C665.448201 581.611793 666.485615 575.907203 668.448750 570.534340 C669.346455 568.077736 671.446553 564.543922 673.391377 564.270302 C679.273457 563.442482 685.348653 563.873817 691.343892 564.013649 C694.185811 564.079933 695.110249 564.867592 693.081197 567.894142 C689.854146 572.707863 690.649800 577.307106 694.995625 581.083290 C703.408833 588.393471 711.963765 595.542518 720.534688 602.668556 C733.907124 613.786537 747.329121 624.844887 760.767842 635.882789 C762.210347 637.067665 763.901997 637.949013 765.478169 638.971107 C766.197652 637.364296 767.084614 635.810280 767.610127 634.142250 C771.883687 620.578163 776.136494 607.007179 780.304829 593.410499 C786.017232 574.776893 791.649556 556.118751 797.316060 536.471107 z"/>
    <path class="selected" fill="#000000" opacity="1.000000" stroke="none"
          d="
M949.066182 619.221107 C963.905781 633.727394 978.492085 647.987037 993.095601 662.228981 C993.773946 662.890602 994.579488 663.434303 995.371602 663.964515 C1000.510152 667.403969 1001.291646 670.236732 999.384541 676.436928 C992.018452 700.385658 984.736958 724.360512 977.460469 748.336830 C974.000142 759.738685 970.681172 771.183265 967.189229 782.575233 C963.974019 793.064979 960.519429 803.481849 957.368916 813.990516 C956.321553 817.484291 954.434590 819.011268 950.764790 819.007606 C897.445088 818.954384 844.125508 818.980873 790.805806 818.959266 C783.884541 818.956459 777.248433 812.384193 775.256245 804.417030 C773.240132 796.354530 777.311421 789.544472 779.416646 782.423256 C786.825093 757.363075 794.673848 732.433388 802.304219 707.438392 C805.376851 697.372841 808.301167 687.262001 811.327046 677.182045 C812.065572 674.721718 813.599385 674.116981 815.632832 675.810707 C823.942158 682.731972 832.190694 689.726478 840.503194 696.643959 C848.050557 702.924598 855.624287 709.173988 863.242696 715.368202 C866.459126 717.983314 866.922993 720.723182 865.440205 724.734657 C862.496480 732.698402 860.272114 740.927650 857.740254 749.043983 C856.245137 753.836708 857.265034 754.944374 862.181050 754.002846 C863.306172 753.787269 864.507710 753.971107 865.674092 753.971107 C878.004292 753.971107 890.337544 753.819130 902.662495 754.073402 C905.919087 754.140541 907.475117 752.852943 908.298360 750.154823 C912.180684 737.428749 916.089864 724.709022 919.707661 711.907387 C920.082295 710.581093 919.018941 708.293739 917.898335 707.183510 C902.698384 692.122841 887.396626 677.164345 872.058125 662.244179 C867.109883 657.430824 861.948994 652.836952 856.942647 648.082252 C849.158467 640.689308 841.672627 632.956520 833.563740 625.941810 C829.410786 622.349342 829.118428 618.823829 830.586568 614.157448 C838.194722 589.975563 845.753926 565.777687 853.212422 541.549232 C858.674458 523.806129 864.053364 506.035621 869.237202 488.209938 C870.339619 484.418922 872.280537 482.934364 876.102071 482.937904 C928.921895 482.987037 981.742818 483.156593 1034.560689 482.836159 C1047.208882 482.759376 1054.760762 497.875465 1050.839741 509.231239 C1042.721333 532.743080 1035.757954 556.654823 1028.382588 580.421730 C1024.623433 592.535560 1020.714497 604.616249 1017.482930 616.872719 C1016.455952 620.767677 1014.987691 619.785988 1013.275166 618.344764 C1003.731343 610.311806 994.322041 602.118995 984.844136 594.007362 C978.209004 588.328712 971.551411 582.675941 964.874898 577.046058 C962.528340 575.067421 961.834004 573.223060 963.177144 569.959266 C965.872456 563.409706 967.722920 556.515846 970.025044 549.799354 C970.756734 547.664284 970.435200 546.909157 967.975117 546.925209 C953.646016 547.018837 939.312031 546.807472 924.991231 547.165199 C923.065938 547.213295 920.134053 549.527565 919.497945 551.410499 C916.427266 560.500160 914.232808 569.885963 911.154317 578.972633 C910.299580 581.495582 911.133565 582.350441 912.527241 583.701881 C924.637105 595.444374 936.723042 607.211342 949.066182 619.221107 z"/>
    <path class="selected" fill="#000000" opacity="1.000000" stroke="none"
          d="
M578.316182 698.971107 C585.472188 704.627113 592.077534 710.344520 598.808125 715.910316 C601.657490 718.266639 601.837910 720.845619 600.712727 724.135902 C597.864827 732.465004 595.206319 740.860023 592.555012 749.254799 C591.189656 753.577919 592.527364 754.725502 596.979146 754.060219 C600.076253 753.597450 603.298360 753.971107 606.464619 753.971107 C616.130025 753.971107 625.819417 753.564857 635.451497 754.131386 C640.785359 754.445106 642.836262 752.194618 644.133321 747.697914 C647.436177 736.247230 651.032552 724.879555 654.189961 713.390297 C654.686848 711.582069 654.223592 708.596351 652.993367 707.366005 C637.743855 692.116249 622.293355 677.066810 606.836323 662.025795 C603.082539 658.372963 599.053303 655.004677 595.260945 651.389869 C586.403645 642.947426 577.850789 634.166054 568.690144 626.070106 C564.446736 622.319984 564.157185 618.883766 565.758870 613.913673 C572.444661 593.167091 578.878194 572.337990 585.264241 551.496315 C591.701131 530.488991 598.083211 509.463112 604.219685 488.366859 C605.401509 484.303993 607.433980 482.922462 611.441304 482.927589 C663.267903 482.993263 715.094502 482.971107 766.921162 482.971107 C782.117573 482.971107 790.394429 494.556862 785.748067 509.069862 C779.527852 528.499367 773.397847 547.958534 767.369038 567.448219 C762.248189 584.003029 757.151753 600.570106 752.448018 617.245460 C751.374409 621.051368 749.776753 619.596962 748.365132 618.422157 C741.141621 612.410316 734.120503 606.155861 726.923360 600.111427 C719.530904 593.902931 712.144185 587.675209 704.519063 581.759743 C697.609151 576.399147 696.568379 573.640053 699.653584 564.178444 C701.228535 559.348488 703.094746 554.609596 704.949605 549.876564 C705.745991 547.844520 705.681660 546.916054 703.081685 546.931007 C688.584004 547.014442 674.082295 546.823524 659.591939 547.160011 C657.802632 547.201576 655.084981 549.494240 654.482747 551.304481 C651.453084 560.411110 649.210042 569.779884 646.165303 578.880836 C645.349507 581.319374 646.046101 582.258522 647.458333 583.635902 C662.401082 598.208778 677.304097 612.822365 692.248433 627.393654 C703.634175 638.495033 715.048970 649.566627 726.492329 660.608436 C727.863911 661.931862 729.462300 663.032326 731.014790 664.154030 C735.277852 667.234047 736.202779 670.979408 734.325093 677.136757 C726.969990 701.255775 719.706685 725.402748 712.299092 749.505531 C705.713765 770.932655 698.895528 792.288612 692.398213 813.742103 C691.255025 817.516884 689.350484 819.009926 685.521138 819.006141 C632.361348 818.954262 579.201558 818.986854 526.041768 818.955848 C517.020283 818.950599 513.428059 812.757728 510.320088 804.133461 C507.910115 797.446449 511.636800 791.668007 513.408040 785.736122 C521.195088 759.656654 529.341634 733.684852 537.303303 707.657264 C540.382100 697.592079 543.347981 687.491981 546.293416 677.386879 C547.019856 674.894935 548.399190 673.950355 550.462910 675.681190 C559.637837 683.376381 568.708089 691.196327 578.316182 698.971107 z"/></svg>